<?xml version="1.0" encoding="UTF-8" standalone="no"?>
<!-- Generator: Gravit.io -->
<svg xmlns="http://www.w3.org/2000/svg" xmlns:xlink="http://www.w3.org/1999/xlink" style="isolation:isolate" viewBox="174.69928825623373 152.5 344.8007117437581 173.99999999999977" width="344.8007117437581" height="173.99999999999977"><path d=" M 176.19928825623373 154 L 517.3350180705372 154 Q 516.0050542116122 154.00000000000006 517.3350180705372 211.9881607732758 Q 518.6649819294623 269.97632154655156 517.3350180705372 323.965298818222 Q 481.0886367009097 326.27042316435643 365.4057014782397 323.44015350039444 Q 247.90523612998498 320.5654166004665 176.19928825623373 323.965298818222 L 176.19928825623373 154 Z " fill="rgb(242,187,75)" stroke-width="1" stroke="rgb(23,23,23)" stroke-linejoin="miter" stroke-linecap="square"/><path d=" M 191.78 170.68 L 191.62 176.98 Q 191.62 177.42 191.33 177.64 Q 191.04 177.86 190.68 177.86 Q 190.12 177.86 190.12 176.36 Q 190.12 173.26 190.3 170.64 L 188.26 170.76 Q 188.02 170.78 187.82 170.53 Q 187.62 170.28 187.62 170.02 Q 187.62 169.32 188.46 169.32 L 190.42 169.3 L 190.62 166.88 Q 189.94 166.64 187.14 166.2 Q 186.06 166.02 185.86 165.98 Q 185.34 165.88 185.34 165.2 Q 185.34 164.96 185.54 164.74 Q 185.74 164.52 186.11 164.52 Q 186.48 164.52 189.11 164.95 Q 191.74 165.38 192.02 165.64 Q 192.14 165.74 192.14 166.38 Q 192.14 166.68 192 168 Q 191.88 168.92 191.86 169.26 L 192.86 169.2 Q 193 169.2 193.31 169.2 Q 193.62 169.2 193.84 169.34 Q 194.06 169.48 194.06 169.87 Q 194.06 170.26 193.78 170.45 Q 193.5 170.64 192.7 170.66 L 191.78 170.68 Z  M 197.32 169.22 Q 198.14 168.92 198.9 168.92 Q 199.66 168.92 200.37 169.16 Q 201.07999999999998 169.4 201.67000000000002 169.9 Q 202.26 170.4 202.62 171.27 Q 202.98 172.14 202.98 173.28 Q 202.98 175.2 201.86 176.52 Q 200.74 177.84 199.27 177.84 Q 197.8 177.84 196.69 177.17 Q 195.58 176.5 195.58 175.7 Q 195.58 175.32 195.67 175.13 Q 195.76 174.94 196 174.82 Q 196.24 174.7 196.43 174.7 Q 196.62 174.7 196.95 174.93 Q 197.28 175.16 197.88 175.57999999999998 Q 198.48 176 199.26 176 Q 200.04 176 200.64 175.21 Q 201.24 174.42000000000002 201.24 173.48 Q 201.24 170.78 198.82 170.78 Q 198.3 170.78 197.61 170.88 Q 196.92 170.98 196.71 171 Q 196.5 171.02 196.14 170.86 Q 195.72 170.46 195.72 168.31 Q 195.72 166.16 195.82 165.53 Q 195.92 164.9 196.16 164.8 Q 196.58 164.62 198.67 164.62 Q 200.76 164.62 202.02 165.02 Q 202.42000000000002 165.26 202.42000000000002 165.71 Q 202.42000000000002 166.16 202.17000000000002 166.44 Q 201.92000000000002 166.72 201.64 166.66 Q 199.98 166.3 198.3 166.3 Q 197.78 166.3 197.26 166.34 Q 197.26 167.12 197.32 169.22 Z  M 210.86 171.36 L 211.02 176.07999999999998 Q 211.02 176.96 210.94 177.1 Q 210.9 177.46 210.71 177.66 Q 210.52 177.86 209.98 177.86 Q 209.72 177.86 209.56 177.53 Q 209.4 177.2 209.38 176.78 Q 209.24 173.26 209.01 170.17 Q 208.78 167.08 208.78 164.42 Q 208.78 164 209.06 163.76 Q 209.34 163.52 209.72 163.52 Q 210.28 163.52 210.39 164.48 Q 210.5 165.44 210.53 166.88 Q 210.56 168.32 210.6 168.98 Q 211.6 168.46 212.6 168.46 Q 214.92000000000002 168.46 215.54 170.5 Q 215.9 171.66 215.9 173.48 Q 215.9 174.07999999999998 215.79 175.37 Q 215.68 176.66 215.66 177.04 Q 215.64 177.42 215.33 177.63 Q 215.02 177.84 214.66 177.84 Q 214.1 177.84 214.1 177.24 L 214.24 173.76 Q 214.24 173.32 214.2 172.3 Q 214.16 171.28 213.79 170.68 Q 213.42000000000002 170.08 212.5 170.08 Q 210.86 170.08 210.86 171.36 Z  M 222.86 177.02 Q 222.14 177.86 221.04 177.86 Q 219.94 177.86 219.14 177.18 Q 217.46 175.88 217.46 173.2 Q 217.46 171.1 218.62 169.83 Q 219.78 168.56 221.48 168.56 Q 223.18 168.56 223.8 169.72 Q 224.34 170.74 224.34 172.8 L 224.3 174.44 Q 224.3 175.6 224.41 177.65 Q 224.51999999999998 179.7 224.51999999999998 180.74 Q 224.51999999999998 182.46 223.67000000000002 183.27 Q 222.82 184.07999999999998 221.07999999999998 184.07999999999998 Q 220.04 184.07999999999998 218.96 183.64 Q 217.88 183.2 217.88 182.62 Q 217.88 182.2 218.11 181.98 Q 218.34 181.76 218.64 181.76 Q 218.94 181.76 219.99 182.2 Q 221.04 182.64 221.5 182.64 Q 222.94 182.64 222.94 180.28 Q 222.94 177.92 222.86 177.02 Z  M 222.84 172.79 Q 222.84 172.79 222.84 172.065 Q 222.84 171.34 222.41 170.75 Q 221.98 170.16 221.06 170.16 Q 220.14 170.16 219.57999999999998 171 Q 219.01999999999998 171.84 219.01999999999998 173.13 Q 219.01999999999998 174.42000000000002 219.55 175.18 Q 220.07999999999998 175.94 221.18 175.94 Q 222.28 175.94 222.6 175 Q 222.84 174.24 222.84 172.79 Z  M 271.54 169.49 Q 271.54 169.49 271.54 169.645 Q 271.54 169.8 271.38 170.06 Q 271.22 170.32 271.02 170.4 Q 269.72 170.48 268.65999999999997 170.48 L 264.86 170.4 Q 264.38 170.4 264.38 169.92 Q 264.38 169.66 264.55 169.4 Q 264.72 169.14 264.96000000000004 169.1 L 268.76 169.18 Q 269.8 169.18 271.15999999999997 169.1 Q 271.54 169.18 271.54 169.49 Z  M 271.54 172.9 Q 271.54 173.16 271.39 173.4 Q 271.24 173.64 271.02 173.68 L 264.7 173.76 Q 264.24 173.76 264.24 173.26 Q 264.24 172.96 264.4 172.71 Q 264.56 172.46 264.8 172.42 Q 266.7 172.4 271.1 172.4 Q 271.54 172.42 271.54 172.9 Z  M 294.08000000000004 170.68 L 293.92 176.98 Q 293.92 177.42 293.63 177.64 Q 293.34000000000003 177.86 292.98 177.86 Q 292.42 177.86 292.42 176.36 Q 292.42 173.26 292.6 170.64 L 290.56 170.76 Q 290.32 170.78 290.12 170.53 Q 289.92 170.28 289.92 170.02 Q 289.92 169.32 290.76 169.32 L 292.72 169.3 L 292.92 166.88 Q 292.24 166.64 289.44 166.2 Q 288.36 166.02 288.16 165.98 Q 287.64 165.88 287.64 165.2 Q 287.64 164.96 287.84000000000003 164.74 Q 288.04 164.52 288.41 164.52 Q 288.78000000000003 164.52 291.41 164.95 Q 294.04 165.38 294.32 165.64 Q 294.44 165.74 294.44 166.38 Q 294.44 166.68 294.3 168 Q 294.18 168.92 294.16 169.26 L 295.16 169.2 Q 295.3 169.2 295.61 169.2 Q 295.92 169.2 296.14 169.34 Q 296.36 169.48 296.36 169.87 Q 296.36 170.26 296.08000000000004 170.45 Q 295.8 170.64 295 170.66 L 294.08000000000004 170.68 Z  M 299.62 169.22 Q 300.44 168.92 301.20000000000005 168.92 Q 301.96000000000004 168.92 302.67 169.16 Q 303.38 169.4 303.97 169.9 Q 304.56 170.4 304.92 171.27 Q 305.28000000000003 172.14 305.28000000000003 173.28 Q 305.28000000000003 175.2 304.16 176.52 Q 303.04 177.84 301.57000000000005 177.84 Q 300.1 177.84 298.99 177.17 Q 297.88 176.5 297.88 175.7 Q 297.88 175.32 297.97 175.13 Q 298.06 174.94 298.3 174.82 Q 298.54 174.7 298.73 174.7 Q 298.92 174.7 299.25 174.93 Q 299.58000000000004 175.16 300.18 175.57999999999998 Q 300.78000000000003 176 301.56 176 Q 302.34000000000003 176 302.94 175.21 Q 303.54 174.42000000000002 303.54 173.48 Q 303.54 170.78 301.12 170.78 Q 300.6 170.78 299.91 170.88 Q 299.22 170.98 299.01 171 Q 298.8 171.02 298.44 170.86 Q 298.02 170.46 298.02 168.31 Q 298.02 166.16 298.12 165.53 Q 298.22 164.9 298.46000000000004 164.8 Q 298.88 164.62 300.97 164.62 Q 303.06 164.62 304.32000000000005 165.02 Q 304.72 165.26 304.72 165.71 Q 304.72 166.16 304.47 166.44 Q 304.22 166.72 303.94 166.66 Q 302.28000000000003 166.3 300.6 166.3 Q 300.08000000000004 166.3 299.56 166.34 Q 299.56 167.12 299.62 169.22 Z  M 311.14 178.12 Q 311.14 178.04 311.20000000000005 177.84 Q 312.5 174.78 314.04 170.74 Q 315.58000000000004 166.7 316.88 163.58 Q 317.16 163.06 317.70000000000005 163.06 Q 317.94000000000005 163.06 318.1 163.2 Q 318.26 163.34 318.26 163.57 Q 318.26 163.8 317.76 164.96 Q 317.26 166.12 315.35 171.01 Q 313.44000000000005 175.9 312.42 178.24 Q 312.08000000000004 178.7 311.68 178.7 Q 311.14 178.7 311.14 178.12 Z  M 325.04 176.9 Q 325.04 177.88 323.98 177.88 Q 323.76 177.88 323.59000000000003 177.69 Q 323.42 177.5 323.42 177.1 L 323.36 172.02 Q 323.36 169.5 323.42 167.28 Q 322.74 167.88 322.1 168.66 Q 321.46000000000004 169.44 321.23 169.7 Q 321 169.96 320.63 170.21 Q 320.26 170.46 319.94000000000005 170.46 Q 319.62 170.46 319.43000000000006 170.24 Q 319.24 170.02 319.24 169.7 Q 319.24 169.38 319.71000000000004 168.83 Q 320.18000000000006 168.28 323.18000000000006 165.1 Q 323.64 164.68 324.34000000000003 164.68 Q 324.68000000000006 164.68 324.90000000000003 164.88 Q 325.12 165.08 325.12 165.34 L 324.98 170.72 L 325.04 176.9 Z  M 326.6 171.52 Q 326.6 168.84 327.56000000000006 166.8 Q 328.04 165.76 328.86 165.16 Q 329.68 164.56 330.74 164.56 Q 332.3 164.56 333.29 166.59 Q 334.28000000000003 168.62 334.28000000000003 171.41 Q 334.28000000000003 174.2 333.36 176.03 Q 332.44000000000005 177.86 330.76 177.86 Q 326.6 177.86 326.6 171.52 Z  M 330.56000000000006 176.02 Q 331.28000000000003 176.02 331.77 175.27 Q 332.26 174.52 332.44000000000005 173.59 Q 332.62 172.66 332.62 171.17 Q 332.62 169.68 332.22 168 Q 332.02 167.08 331.61 166.53 Q 331.20000000000005 165.98 330.62 165.98 Q 329.84000000000003 165.98 329.28000000000003 166.92 Q 328.28000000000003 168.62 328.28000000000003 171.44 Q 328.28000000000003 173.28 328.97 174.65 Q 329.66 176.02 330.56000000000006 176.02 Z  M 404.22 169.49 Q 404.22 169.49 404.22 169.645 Q 404.22 169.8 404.06000000000006 170.06 Q 403.90000000000003 170.32 403.70000000000005 170.4 Q 402.40000000000003 170.48 401.34000000000003 170.48 L 397.5400000000001 170.4 Q 397.06000000000006 170.4 397.06000000000006 169.92 Q 397.06000000000006 169.66 397.23 169.4 Q 397.40000000000003 169.14 397.64000000000004 169.1 L 401.44000000000005 169.18 Q 402.48 169.18 403.84000000000003 169.1 Q 404.22 169.18 404.22 169.49 Z  M 404.22 172.9 Q 404.22 173.16 404.07000000000005 173.4 Q 403.9200000000001 173.64 403.70000000000005 173.68 L 397.38 173.76 Q 396.9200000000001 173.76 396.9200000000001 173.26 Q 396.9200000000001 172.96 397.08000000000004 172.71 Q 397.24 172.46 397.48 172.42 Q 399.38 172.4 403.78000000000003 172.4 Q 404.22 172.42 404.22 172.9 Z  M 431.36 170.68 L 431.20000000000005 176.98 Q 431.20000000000005 177.42 430.9100000000001 177.64 Q 430.62 177.86 430.26000000000005 177.86 Q 429.70000000000005 177.86 429.70000000000005 176.36 Q 429.70000000000005 173.26 429.88000000000005 170.64 L 427.84000000000003 170.76 Q 427.6 170.78 427.40000000000003 170.53 Q 427.20000000000005 170.28 427.20000000000005 170.02 Q 427.20000000000005 169.32 428.0400000000001 169.32 L 430 169.3 L 430.20000000000005 166.88 Q 429.52000000000004 166.64 426.72 166.2 Q 425.64000000000004 166.02 425.44000000000005 165.98 Q 424.9200000000001 165.88 424.9200000000001 165.2 Q 424.9200000000001 164.96 425.12 164.74 Q 425.32000000000005 164.52 425.69000000000005 164.52 Q 426.06000000000006 164.52 428.69000000000005 164.95 Q 431.32000000000005 165.38 431.6 165.64 Q 431.72 165.74 431.72 166.38 Q 431.72 166.68 431.58000000000004 168 Q 431.46000000000004 168.92 431.44000000000005 169.26 L 432.44000000000005 169.2 Q 432.58000000000004 169.2 432.89000000000004 169.2 Q 433.20000000000005 169.2 433.4200000000001 169.34 Q 433.64000000000004 169.48 433.64000000000004 169.87 Q 433.64000000000004 170.26 433.36 170.45 Q 433.08000000000004 170.64 432.28000000000003 170.66 L 431.36 170.68 Z  M 436.63000000000005 175.44 Q 436.63000000000005 175.44 436.845 175.44 Q 437.06000000000006 175.44 437.38000000000005 175.76 Q 437.70000000000005 176.07999999999998 437.76000000000005 176.64 Q 437.76000000000005 177.07999999999998 437.44000000000005 177.45 Q 437.12 177.82 436.69000000000005 177.82 Q 436.26000000000005 177.82 435.9200000000001 177.59 Q 435.58000000000004 177.36 435.58000000000004 176.88 Q 435.58000000000004 176.4 435.89000000000004 175.92000000000002 Q 436.20000000000005 175.44 436.63000000000005 175.44 Z  M 441.18000000000006 169.22 Q 442.00000000000006 168.92 442.76000000000005 168.92 Q 443.52000000000004 168.92 444.2300000000001 169.16 Q 444.94000000000005 169.4 445.53000000000003 169.9 Q 446.12000000000006 170.4 446.4800000000001 171.27 Q 446.84000000000003 172.14 446.84000000000003 173.28 Q 446.84000000000003 175.2 445.72 176.52 Q 444.6 177.84 443.13000000000005 177.84 Q 441.66 177.84 440.55000000000007 177.17 Q 439.44000000000005 176.5 439.44000000000005 175.7 Q 439.44000000000005 175.32 439.5300000000001 175.13 Q 439.62000000000006 174.94 439.86 174.82 Q 440.1 174.7 440.2900000000001 174.7 Q 440.48 174.7 440.81000000000006 174.93 Q 441.14000000000004 175.16 441.74000000000007 175.57999999999998 Q 442.34000000000003 176 443.12000000000006 176 Q 443.90000000000003 176 444.50000000000006 175.21 Q 445.1 174.42000000000002 445.1 173.48 Q 445.1 170.78 442.68000000000006 170.78 Q 442.16 170.78 441.47 170.88 Q 440.7800000000001 170.98 440.57000000000005 171 Q 440.36 171.02 440.00000000000006 170.86 Q 439.58000000000004 170.46 439.58000000000004 168.31 Q 439.58000000000004 166.16 439.68000000000006 165.53 Q 439.7800000000001 164.9 440.02000000000004 164.8 Q 440.44000000000005 164.62 442.53000000000003 164.62 Q 444.62000000000006 164.62 445.88000000000005 165.02 Q 446.28000000000003 165.26 446.28000000000003 165.71 Q 446.28000000000003 166.16 446.03000000000003 166.44 Q 445.78000000000003 166.72 445.50000000000006 166.66 Q 443.84000000000003 166.3 442.16 166.3 Q 441.64000000000004 166.3 441.12000000000006 166.34 Q 441.12000000000006 167.12 441.18000000000006 169.22 Z  M 459.72 176.94 Q 459.72 177.88 458.86000000000007 177.88 Q 458.50000000000006 177.88 457.88000000000005 176.11 Q 457.26000000000005 174.34 456.22 173.38 Q 456.12000000000006 173.52 455.37000000000006 174.17000000000002 Q 454.62000000000006 174.82 454.4800000000001 174.96 L 454.4800000000001 176.96 Q 454.44000000000005 177.26 454.38000000000005 177.42 Q 454.32000000000005 177.57999999999998 454.11000000000007 177.72 Q 453.90000000000003 177.86 453.5400000000001 177.86 Q 453.00000000000006 177.86 453.00000000000006 177.2 Q 453.00000000000006 175.34 452.84000000000003 171.43 Q 452.68000000000006 167.52 452.68000000000006 164.42 Q 452.68000000000006 164.04 452.99000000000007 163.82 Q 453.30000000000007 163.6 453.64000000000004 163.6 Q 454.1 163.6 454.20000000000005 164.18 L 454.20000000000005 167.72 Q 454.20000000000005 168.36 454.22 168.68 Q 454.24000000000007 169 454.26000000000005 169.64 Q 454.30000000000007 170.96 454.40000000000003 172.62 Q 454.9800000000001 172.18 455.89000000000004 171.23 Q 456.80000000000007 170.28 457.26000000000005 169.6 Q 457.9800000000001 168.46 458.58000000000004 168.46 Q 458.74000000000007 168.46 458.90000000000003 168.54 Q 459.32000000000005 168.78 459.32000000000005 169.1 Q 459.32000000000005 169.42 459.0400000000001 169.94 Q 458.32000000000005 171.18 457.38000000000005 172.2 Q 458.28000000000003 173.2 459.18000000000006 175.06 Q 459.72 176.26 459.72 176.94 Z  M 466.62000000000006 177.02 Q 465.90000000000003 177.86 464.80000000000007 177.86 Q 463.70000000000005 177.86 462.90000000000003 177.18 Q 461.2200000000001 175.88 461.2200000000001 173.2 Q 461.2200000000001 171.1 462.38000000000005 169.83 Q 463.5400000000001 168.56 465.24000000000007 168.56 Q 466.94000000000005 168.56 467.56000000000006 169.72 Q 468.1000000000001 170.74 468.1000000000001 172.8 L 468.06000000000006 174.44 Q 468.06000000000006 175.6 468.1700000000001 177.65 Q 468.2800000000001 179.7 468.2800000000001 180.74 Q 468.2800000000001 182.46 467.43000000000006 183.27 Q 466.58000000000004 184.07999999999998 464.8400000000001 184.07999999999998 Q 463.80000000000007 184.07999999999998 462.7200000000001 183.64 Q 461.64000000000004 183.2 461.64000000000004 182.62 Q 461.64000000000004 182.2 461.87000000000006 181.98 Q 462.1000000000001 181.76 462.40000000000003 181.76 Q 462.70000000000005 181.76 463.75000000000006 182.2 Q 464.80000000000007 182.64 465.26000000000005 182.64 Q 466.70000000000005 182.64 466.70000000000005 180.28 Q 466.70000000000005 177.92 466.62000000000006 177.02 Z  M 466.6000000000001 172.79 Q 466.6000000000001 172.79 466.6000000000001 172.065 Q 466.6000000000001 171.34 466.1700000000001 170.75 Q 465.74000000000007 170.16 464.82000000000005 170.16 Q 463.90000000000003 170.16 463.3400000000001 171 Q 462.7800000000001 171.84 462.7800000000001 173.13 Q 462.7800000000001 174.42000000000002 463.31000000000006 175.18 Q 463.8400000000001 175.94 464.94000000000005 175.94 Q 466.0400000000001 175.94 466.36000000000007 175 Q 466.6000000000001 174.24 466.6000000000001 172.79 Z  M 190.32 195.708 Q 190.32 195.708 190.17 195.90800000000002 Q 190.02 196.108 188.95 198.248 Q 187.88 200.388 187.78 200.808 Q 188.62 200.588 189.49 200.588 Q 190.36 200.588 191.12 201.06799999999998 Q 192.36 201.888 192.36 203.708 Q 192.36 207.688 188.48 207.708 Q 188.46 207.708 188.42 207.708 Q 187 207.708 186.38 206.71800000000002 Q 185.76 205.728 185.7 204.088 Q 185.7 200.288 188.56 195.708 Q 189.04 194.90800000000002 189.4 194.668 Q 189.76 194.428 189.97 194.428 Q 190.18 194.428 190.4 194.588 Q 190.62 194.748 190.62 195.028 Q 190.62 195.308 190.32 195.708 Z  M 190.86 203.838 Q 190.86 203.838 190.86 203.433 Q 190.86 203.028 190.41 202.588 Q 189.96 202.148 189.2 202.148 Q 188.44 202.148 188.08 202.268 Q 187.8 202.388 187.64 202.578 Q 187.48 202.768 187.35 203.168 Q 187.22 203.56799999999998 187.22 204.258 Q 187.22 204.948 187.61 205.458 Q 188 205.96800000000002 188.56 205.96800000000002 Q 189.68 205.96800000000002 190.27 205.308 Q 190.86 204.648 190.86 203.838 Z  M 193.6 201.308 Q 193.6 198.628 194.56 196.588 Q 195.04 195.548 195.86 194.948 Q 196.68 194.348 197.74 194.348 Q 199.3 194.348 200.29 196.378 Q 201.28 198.40800000000002 201.28 201.198 Q 201.28 203.988 200.36 205.81799999999998 Q 199.44 207.648 197.76 207.648 Q 193.6 207.648 193.6 201.308 Z  M 197.56 205.808 Q 198.28 205.808 198.77 205.058 Q 199.26 204.308 199.44 203.378 Q 199.62 202.448 199.62 200.958 Q 199.62 199.46800000000002 199.22 197.788 Q 199.02 196.868 198.61 196.31799999999998 Q 198.2 195.768 197.62 195.768 Q 196.84 195.768 196.28 196.708 Q 195.28 198.40800000000002 195.28 201.228 Q 195.28 203.06799999999998 195.97 204.438 Q 196.66 205.808 197.56 205.808 Z  M 204.09 205.228 Q 204.09 205.228 204.305 205.228 Q 204.52 205.228 204.84 205.548 Q 205.16 205.868 205.22 206.428 Q 205.22 206.868 204.9 207.238 Q 204.58 207.608 204.15 207.608 Q 203.72 207.608 203.38 207.378 Q 203.04 207.148 203.04 206.668 Q 203.04 206.188 203.35 205.708 Q 203.66 205.228 204.09 205.228 Z  M 206.84 201.308 Q 206.84 198.628 207.8 196.588 Q 208.28 195.548 209.1 194.948 Q 209.92000000000002 194.348 210.98000000000002 194.348 Q 212.54 194.348 213.53 196.378 Q 214.52 198.40800000000002 214.52 201.198 Q 214.52 203.988 213.6 205.81799999999998 Q 212.68 207.648 211 207.648 Q 206.84 207.648 206.84 201.308 Z  M 210.8 205.808 Q 211.52 205.808 212.01 205.058 Q 212.5 204.308 212.68 203.378 Q 212.86 202.448 212.86 200.958 Q 212.86 199.46800000000002 212.46 197.788 Q 212.26 196.868 211.85 196.31799999999998 Q 211.44 195.768 210.86 195.768 Q 210.08 195.768 209.52 196.708 Q 208.52 198.40800000000002 208.52 201.228 Q 208.52 203.06799999999998 209.21 204.438 Q 209.9 205.808 210.8 205.808 Z  M 215.8 201.308 Q 215.8 198.628 216.76 196.588 Q 217.24 195.548 218.06 194.948 Q 218.88 194.348 219.94 194.348 Q 221.5 194.348 222.49 196.378 Q 223.48000000000002 198.40800000000002 223.48000000000002 201.198 Q 223.48000000000002 203.988 222.56 205.81799999999998 Q 221.64 207.648 219.96 207.648 Q 215.8 207.648 215.8 201.308 Z  M 219.76 205.808 Q 220.48000000000002 205.808 220.97 205.058 Q 221.46 204.308 221.64 203.378 Q 221.82 202.448 221.82 200.958 Q 221.82 199.46800000000002 221.42000000000002 197.788 Q 221.22 196.868 220.81 196.31799999999998 Q 220.4 195.768 219.82 195.768 Q 219.04000000000002 195.768 218.48000000000002 196.708 Q 217.48000000000002 198.40800000000002 217.48000000000002 201.228 Q 217.48000000000002 203.06799999999998 218.17000000000002 204.438 Q 218.86 205.808 219.76 205.808 Z  M 224.76 201.308 Q 224.76 198.628 225.72 196.588 Q 226.2 195.548 227.02 194.948 Q 227.84 194.348 228.9 194.348 Q 230.46 194.348 231.45 196.378 Q 232.44 198.40800000000002 232.44 201.198 Q 232.44 203.988 231.52 205.81799999999998 Q 230.6 207.648 228.92000000000002 207.648 Q 224.76 207.648 224.76 201.308 Z  M 228.72 205.808 Q 229.44 205.808 229.93 205.058 Q 230.42000000000002 204.308 230.6 203.378 Q 230.78 202.448 230.78 200.958 Q 230.78 199.46800000000002 230.38 197.788 Q 230.18 196.868 229.77 196.31799999999998 Q 229.36 195.768 228.78 195.768 Q 228 195.768 227.44 196.708 Q 226.44 198.40800000000002 226.44 201.228 Q 226.44 203.06799999999998 227.13 204.438 Q 227.82 205.808 228.72 205.808 Z  M 244.2 206.808 Q 243.48000000000002 207.648 242.38 207.648 Q 241.28 207.648 240.48000000000002 206.96800000000002 Q 238.8 205.668 238.8 202.988 Q 238.8 200.888 239.96 199.618 Q 241.12 198.348 242.82 198.348 Q 244.52 198.348 245.14 199.50799999999998 Q 245.68 200.528 245.68 202.588 L 245.64 204.228 Q 245.64 205.388 245.75 207.438 Q 245.86 209.488 245.86 210.528 Q 245.86 212.248 245.01 213.058 Q 244.16 213.868 242.42000000000002 213.868 Q 241.38 213.868 240.3 213.428 Q 239.22 212.988 239.22 212.40800000000002 Q 239.22 211.988 239.45 211.768 Q 239.68 211.548 239.98000000000002 211.548 Q 240.28 211.548 241.33 211.988 Q 242.38 212.428 242.84 212.428 Q 244.28 212.428 244.28 210.06799999999998 Q 244.28 207.708 244.2 206.808 Z  M 244.18 202.578 Q 244.18 202.578 244.18 201.853 Q 244.18 201.128 243.75 200.538 Q 243.32 199.948 242.4 199.948 Q 241.48000000000002 199.948 240.92000000000002 200.788 Q 240.36 201.628 240.36 202.918 Q 240.36 204.208 240.89 204.96800000000002 Q 241.42000000000002 205.728 242.52 205.728 Q 243.62 205.728 243.94 204.788 Q 244.18 204.028 244.18 202.578 Z  M 269.88 199.278 Q 269.88 199.278 269.88 199.433 Q 269.88 199.588 269.72 199.848 Q 269.56 200.108 269.36 200.188 Q 268.06 200.268 267 200.268 L 263.2 200.188 Q 262.72 200.188 262.72 199.708 Q 262.72 199.448 262.89 199.188 Q 263.06 198.928 263.3 198.888 L 267.1 198.96800000000002 Q 268.14 198.96800000000002 269.5 198.888 Q 269.88 198.96800000000002 269.88 199.278 Z  M 269.88 202.688 Q 269.88 202.948 269.73 203.188 Q 269.58000000000004 203.428 269.36 203.46800000000002 L 263.04 203.548 Q 262.58000000000004 203.548 262.58000000000004 203.048 Q 262.58000000000004 202.748 262.74 202.498 Q 262.9 202.248 263.14 202.208 Q 265.04 202.188 269.44 202.188 Q 269.88 202.208 269.88 202.688 Z  M 290.96000000000004 195.708 Q 290.96000000000004 195.708 290.81 195.90800000000002 Q 290.66 196.108 289.59000000000003 198.248 Q 288.52 200.388 288.42 200.808 Q 289.26 200.588 290.13 200.588 Q 291 200.588 291.76 201.06799999999998 Q 293 201.888 293 203.708 Q 293 207.688 289.12 207.708 Q 289.1 207.708 289.06 207.708 Q 287.64 207.708 287.02 206.71800000000002 Q 286.40000000000003 205.728 286.34000000000003 204.088 Q 286.34000000000003 200.288 289.20000000000005 195.708 Q 289.68 194.90800000000002 290.04 194.668 Q 290.40000000000003 194.428 290.61 194.428 Q 290.82000000000005 194.428 291.04 194.588 Q 291.26 194.748 291.26 195.028 Q 291.26 195.308 290.96000000000004 195.708 Z  M 291.5 203.838 Q 291.5 203.838 291.5 203.433 Q 291.5 203.028 291.05 202.588 Q 290.6 202.148 289.84000000000003 202.148 Q 289.08000000000004 202.148 288.72 202.268 Q 288.44 202.388 288.28000000000003 202.578 Q 288.12 202.768 287.99 203.168 Q 287.86 203.56799999999998 287.86 204.258 Q 287.86 204.948 288.25 205.458 Q 288.64 205.96800000000002 289.20000000000005 205.96800000000002 Q 290.32000000000005 205.96800000000002 290.91 205.308 Q 291.5 204.648 291.5 203.838 Z  M 294.24 201.308 Q 294.24 198.628 295.20000000000005 196.588 Q 295.68 195.548 296.5 194.948 Q 297.32000000000005 194.348 298.38 194.348 Q 299.94000000000005 194.348 300.93 196.378 Q 301.92 198.40800000000002 301.92 201.198 Q 301.92 203.988 301 205.81799999999998 Q 300.08000000000004 207.648 298.40000000000003 207.648 Q 294.24 207.648 294.24 201.308 Z  M 298.20000000000005 205.808 Q 298.92 205.808 299.41 205.058 Q 299.90000000000003 204.308 300.08000000000004 203.378 Q 300.26 202.448 300.26 200.958 Q 300.26 199.46800000000002 299.86 197.788 Q 299.66 196.868 299.25 196.31799999999998 Q 298.84000000000003 195.768 298.26 195.768 Q 297.48 195.768 296.92 196.708 Q 295.92 198.40800000000002 295.92 201.228 Q 295.92 203.06799999999998 296.61 204.438 Q 297.3 205.808 298.20000000000005 205.808 Z  M 304.73 205.228 Q 304.73 205.228 304.945 205.228 Q 305.16 205.228 305.48 205.548 Q 305.8 205.868 305.86 206.428 Q 305.86 206.868 305.54 207.238 Q 305.22 207.608 304.79 207.608 Q 304.36 207.608 304.02 207.378 Q 303.68 207.148 303.68 206.668 Q 303.68 206.188 303.99 205.708 Q 304.3 205.228 304.73 205.228 Z  M 307.48 201.308 Q 307.48 198.628 308.44 196.588 Q 308.92 195.548 309.74 194.948 Q 310.56 194.348 311.62 194.348 Q 313.18 194.348 314.17 196.378 Q 315.16 198.40800000000002 315.16 201.198 Q 315.16 203.988 314.24 205.81799999999998 Q 313.32000000000005 207.648 311.64 207.648 Q 307.48 207.648 307.48 201.308 Z  M 311.44 205.808 Q 312.16 205.808 312.65000000000003 205.058 Q 313.14 204.308 313.32000000000005 203.378 Q 313.5 202.448 313.5 200.958 Q 313.5 199.46800000000002 313.1 197.788 Q 312.90000000000003 196.868 312.49 196.31799999999998 Q 312.08000000000004 195.768 311.5 195.768 Q 310.72 195.768 310.16 196.708 Q 309.16 198.40800000000002 309.16 201.228 Q 309.16 203.06799999999998 309.85 204.438 Q 310.54 205.808 311.44 205.808 Z  M 316.44000000000005 201.308 Q 316.44000000000005 198.628 317.40000000000003 196.588 Q 317.88 195.548 318.70000000000005 194.948 Q 319.52 194.348 320.58000000000004 194.348 Q 322.14 194.348 323.13 196.378 Q 324.12 198.40800000000002 324.12 201.198 Q 324.12 203.988 323.20000000000005 205.81799999999998 Q 322.28000000000003 207.648 320.6 207.648 Q 316.44000000000005 207.648 316.44000000000005 201.308 Z  M 320.40000000000003 205.808 Q 321.12 205.808 321.61 205.058 Q 322.1 204.308 322.28000000000003 203.378 Q 322.46000000000004 202.448 322.46000000000004 200.958 Q 322.46000000000004 199.46800000000002 322.06000000000006 197.788 Q 321.86 196.868 321.45000000000005 196.31799999999998 Q 321.04 195.768 320.46000000000004 195.768 Q 319.68000000000006 195.768 319.12 196.708 Q 318.12 198.40800000000002 318.12 201.228 Q 318.12 203.06799999999998 318.81000000000006 204.438 Q 319.5 205.808 320.40000000000003 205.808 Z  M 325.40000000000003 201.308 Q 325.40000000000003 198.628 326.36 196.588 Q 326.84000000000003 195.548 327.66 194.948 Q 328.48 194.348 329.54 194.348 Q 331.1 194.348 332.09000000000003 196.378 Q 333.08000000000004 198.40800000000002 333.08000000000004 201.198 Q 333.08000000000004 203.988 332.16 205.81799999999998 Q 331.24 207.648 329.56000000000006 207.648 Q 325.40000000000003 207.648 325.40000000000003 201.308 Z  M 329.36 205.808 Q 330.08000000000004 205.808 330.57000000000005 205.058 Q 331.06000000000006 204.308 331.24 203.378 Q 331.42 202.448 331.42 200.958 Q 331.42 199.46800000000002 331.02000000000004 197.788 Q 330.82000000000005 196.868 330.41 196.31799999999998 Q 330 195.768 329.42 195.768 Q 328.64000000000004 195.768 328.08000000000004 196.708 Q 327.08000000000004 198.40800000000002 327.08000000000004 201.228 Q 327.08000000000004 203.06799999999998 327.77000000000004 204.438 Q 328.46000000000004 205.808 329.36 205.808 Z  M 334.62 207.90800000000002 Q 334.62 207.828 334.68000000000006 207.628 Q 335.98 204.56799999999998 337.52000000000004 200.528 Q 339.06000000000006 196.488 340.36 193.368 Q 340.64000000000004 192.848 341.18000000000006 192.848 Q 341.4200000000001 192.848 341.58000000000004 192.988 Q 341.74 193.128 341.74 193.358 Q 341.74 193.588 341.24 194.748 Q 340.74 195.90800000000002 338.83000000000004 200.798 Q 336.9200000000001 205.688 335.90000000000003 208.028 Q 335.56000000000006 208.488 335.16 208.488 Q 334.62 208.488 334.62 207.90800000000002 Z  M 348.52000000000004 206.688 Q 348.52000000000004 207.668 347.46000000000004 207.668 Q 347.24 207.668 347.07000000000005 207.478 Q 346.90000000000003 207.288 346.90000000000003 206.888 L 346.84000000000003 201.808 Q 346.84000000000003 199.288 346.90000000000003 197.06799999999998 Q 346.22 197.668 345.58000000000004 198.448 Q 344.94000000000005 199.228 344.71000000000004 199.488 Q 344.48 199.748 344.11 199.998 Q 343.74 200.248 343.4200000000001 200.248 Q 343.1 200.248 342.9100000000001 200.028 Q 342.72 199.808 342.72 199.488 Q 342.72 199.168 343.19000000000005 198.618 Q 343.6600000000001 198.06799999999998 346.6600000000001 194.888 Q 347.12 194.46800000000002 347.82000000000005 194.46800000000002 Q 348.1600000000001 194.46800000000002 348.38000000000005 194.668 Q 348.6 194.868 348.6 195.128 L 348.46000000000004 200.508 L 348.52000000000004 206.688 Z  M 350.08000000000004 201.308 Q 350.08000000000004 198.628 351.0400000000001 196.588 Q 351.52000000000004 195.548 352.34000000000003 194.948 Q 353.16 194.348 354.22 194.348 Q 355.78000000000003 194.348 356.77000000000004 196.378 Q 357.76000000000005 198.40800000000002 357.76000000000005 201.198 Q 357.76000000000005 203.988 356.84000000000003 205.81799999999998 Q 355.9200000000001 207.648 354.24 207.648 Q 350.08000000000004 207.648 350.08000000000004 201.308 Z  M 354.0400000000001 205.808 Q 354.76000000000005 205.808 355.25 205.058 Q 355.74 204.308 355.9200000000001 203.378 Q 356.1 202.448 356.1 200.958 Q 356.1 199.46800000000002 355.70000000000005 197.788 Q 355.5 196.868 355.09000000000003 196.31799999999998 Q 354.68000000000006 195.768 354.1 195.768 Q 353.32000000000005 195.768 352.76000000000005 196.708 Q 351.76000000000005 198.40800000000002 351.76000000000005 201.228 Q 351.76000000000005 203.06799999999998 352.45000000000005 204.438 Q 353.14000000000004 205.808 354.0400000000001 205.808 Z  M 359.0400000000001 201.308 Q 359.0400000000001 198.628 360.00000000000006 196.588 Q 360.48 195.548 361.30000000000007 194.948 Q 362.12 194.348 363.18000000000006 194.348 Q 364.74 194.348 365.73 196.378 Q 366.72 198.40800000000002 366.72 201.198 Q 366.72 203.988 365.80000000000007 205.81799999999998 Q 364.88000000000005 207.648 363.20000000000005 207.648 Q 359.0400000000001 207.648 359.0400000000001 201.308 Z  M 363.00000000000006 205.808 Q 363.72 205.808 364.21000000000004 205.058 Q 364.70000000000005 204.308 364.88000000000005 203.378 Q 365.06000000000006 202.448 365.06000000000006 200.958 Q 365.06000000000006 199.46800000000002 364.6600000000001 197.788 Q 364.46000000000004 196.868 364.05000000000007 196.31799999999998 Q 363.64000000000004 195.768 363.06000000000006 195.768 Q 362.2800000000001 195.768 361.72 196.708 Q 360.72 198.40800000000002 360.72 201.228 Q 360.72 203.06799999999998 361.4100000000001 204.438 Q 362.1 205.808 363.00000000000006 205.808 Z  M 368.00000000000006 201.308 Q 368.00000000000006 198.628 368.96000000000004 196.588 Q 369.44000000000005 195.548 370.26000000000005 194.948 Q 371.08000000000004 194.348 372.14000000000004 194.348 Q 373.70000000000005 194.348 374.69000000000005 196.378 Q 375.68000000000006 198.40800000000002 375.68000000000006 201.198 Q 375.68000000000006 203.988 374.76000000000005 205.81799999999998 Q 373.84000000000003 207.648 372.1600000000001 207.648 Q 368.00000000000006 207.648 368.00000000000006 201.308 Z  M 371.96000000000004 205.808 Q 372.68000000000006 205.808 373.1700000000001 205.058 Q 373.6600000000001 204.308 373.84000000000003 203.378 Q 374.02000000000004 202.448 374.02000000000004 200.958 Q 374.02000000000004 199.46800000000002 373.62000000000006 197.788 Q 373.4200000000001 196.868 373.01000000000005 196.31799999999998 Q 372.6 195.768 372.02000000000004 195.768 Q 371.24000000000007 195.768 370.68000000000006 196.708 Q 369.68000000000006 198.40800000000002 369.68000000000006 201.228 Q 369.68000000000006 203.06799999999998 370.37000000000006 204.438 Q 371.06000000000006 205.808 371.96000000000004 205.808 Z  M 404.22 199.278 Q 404.22 199.278 404.22 199.433 Q 404.22 199.588 404.06000000000006 199.848 Q 403.90000000000003 200.108 403.70000000000005 200.188 Q 402.40000000000003 200.268 401.34000000000003 200.268 L 397.5400000000001 200.188 Q 397.06000000000006 200.188 397.06000000000006 199.708 Q 397.06000000000006 199.448 397.23 199.188 Q 397.40000000000003 198.928 397.64000000000004 198.888 L 401.44000000000005 198.96800000000002 Q 402.48 198.96800000000002 403.84000000000003 198.888 Q 404.22 198.96800000000002 404.22 199.278 Z  M 404.22 202.688 Q 404.22 202.948 404.07000000000005 203.188 Q 403.9200000000001 203.428 403.70000000000005 203.46800000000002 L 397.38 203.548 Q 396.9200000000001 203.548 396.9200000000001 203.048 Q 396.9200000000001 202.748 397.08000000000004 202.498 Q 397.24 202.248 397.48 202.208 Q 399.38 202.188 403.78000000000003 202.188 Q 404.22 202.208 404.22 202.688 Z  M 425.30000000000007 195.708 Q 425.30000000000007 195.708 425.15000000000003 195.90800000000002 Q 425.00000000000006 196.108 423.93000000000006 198.248 Q 422.86 200.388 422.76000000000005 200.808 Q 423.6 200.588 424.47 200.588 Q 425.34000000000003 200.588 426.1 201.06799999999998 Q 427.34000000000003 201.888 427.34000000000003 203.708 Q 427.34000000000003 207.688 423.46000000000004 207.708 Q 423.44000000000005 207.708 423.40000000000003 207.708 Q 421.98 207.708 421.36 206.71800000000002 Q 420.74 205.728 420.68000000000006 204.088 Q 420.68000000000006 200.288 423.5400000000001 195.708 Q 424.02000000000004 194.90800000000002 424.38000000000005 194.668 Q 424.74 194.428 424.95000000000005 194.428 Q 425.1600000000001 194.428 425.38000000000005 194.588 Q 425.6 194.748 425.6 195.028 Q 425.6 195.308 425.30000000000007 195.708 Z  M 425.84000000000003 203.838 Q 425.84000000000003 203.838 425.84000000000003 203.433 Q 425.84000000000003 203.028 425.39000000000004 202.588 Q 424.94000000000005 202.148 424.18000000000006 202.148 Q 423.4200000000001 202.148 423.06000000000006 202.268 Q 422.7800000000001 202.388 422.62 202.578 Q 422.46000000000004 202.768 422.33000000000004 203.168 Q 422.20000000000005 203.56799999999998 422.20000000000005 204.258 Q 422.20000000000005 204.948 422.59000000000003 205.458 Q 422.98 205.96800000000002 423.5400000000001 205.96800000000002 Q 424.6600000000001 205.96800000000002 425.25000000000006 205.308 Q 425.84000000000003 204.648 425.84000000000003 203.838 Z  M 428.58000000000004 201.308 Q 428.58000000000004 198.628 429.5400000000001 196.588 Q 430.02000000000004 195.548 430.84000000000003 194.948 Q 431.66 194.348 432.72 194.348 Q 434.28000000000003 194.348 435.27000000000004 196.378 Q 436.26000000000005 198.40800000000002 436.26000000000005 201.198 Q 436.26000000000005 203.988 435.34000000000003 205.81799999999998 Q 434.4200000000001 207.648 432.74 207.648 Q 428.58000000000004 207.648 428.58000000000004 201.308 Z  M 432.5400000000001 205.808 Q 433.26000000000005 205.808 433.75 205.058 Q 434.24 204.308 434.4200000000001 203.378 Q 434.6 202.448 434.6 200.958 Q 434.6 199.46800000000002 434.20000000000005 197.788 Q 434 196.868 433.59000000000003 196.31799999999998 Q 433.18000000000006 195.768 432.6 195.768 Q 431.82000000000005 195.768 431.26000000000005 196.708 Q 430.26000000000005 198.40800000000002 430.26000000000005 201.228 Q 430.26000000000005 203.06799999999998 430.95000000000005 204.438 Q 431.64000000000004 205.808 432.5400000000001 205.808 Z  M 463.22 206.728 Q 463.22 207.668 462.36000000000007 207.668 Q 462.00000000000006 207.668 461.38000000000005 205.898 Q 460.76000000000005 204.128 459.72 203.168 Q 459.62000000000006 203.308 458.87000000000006 203.958 Q 458.12000000000006 204.608 457.9800000000001 204.748 L 457.9800000000001 206.748 Q 457.94000000000005 207.048 457.88000000000005 207.208 Q 457.82000000000005 207.368 457.61000000000007 207.508 Q 457.40000000000003 207.648 457.0400000000001 207.648 Q 456.50000000000006 207.648 456.50000000000006 206.988 Q 456.50000000000006 205.128 456.34000000000003 201.21800000000002 Q 456.18000000000006 197.308 456.18000000000006 194.208 Q 456.18000000000006 193.828 456.49000000000007 193.608 Q 456.80000000000007 193.388 457.14000000000004 193.388 Q 457.6 193.388 457.70000000000005 193.96800000000002 L 457.70000000000005 197.50799999999998 Q 457.70000000000005 198.148 457.72 198.46800000000002 Q 457.74000000000007 198.788 457.76000000000005 199.428 Q 457.80000000000007 200.748 457.90000000000003 202.40800000000002 Q 458.4800000000001 201.96800000000002 459.39000000000004 201.018 Q 460.30000000000007 200.06799999999998 460.76000000000005 199.388 Q 461.4800000000001 198.248 462.08000000000004 198.248 Q 462.24000000000007 198.248 462.40000000000003 198.328 Q 462.82000000000005 198.56799999999998 462.82000000000005 198.888 Q 462.82000000000005 199.208 462.5400000000001 199.728 Q 461.82000000000005 200.96800000000002 460.88000000000005 201.988 Q 461.78000000000003 202.988 462.68000000000006 204.848 Q 463.22 206.048 463.22 206.728 Z  M 470.12000000000006 206.808 Q 469.40000000000003 207.648 468.30000000000007 207.648 Q 467.20000000000005 207.648 466.40000000000003 206.96800000000002 Q 464.7200000000001 205.668 464.7200000000001 202.988 Q 464.7200000000001 200.888 465.88000000000005 199.618 Q 467.0400000000001 198.348 468.74000000000007 198.348 Q 470.44000000000005 198.348 471.06000000000006 199.50799999999998 Q 471.6000000000001 200.528 471.6000000000001 202.588 L 471.56000000000006 204.228 Q 471.56000000000006 205.388 471.6700000000001 207.438 Q 471.7800000000001 209.488 471.7800000000001 210.528 Q 471.7800000000001 212.248 470.93000000000006 213.058 Q 470.08000000000004 213.868 468.3400000000001 213.868 Q 467.30000000000007 213.868 466.2200000000001 213.428 Q 465.14000000000004 212.988 465.14000000000004 212.40800000000002 Q 465.14000000000004 211.988 465.37000000000006 211.768 Q 465.6000000000001 211.548 465.90000000000003 211.548 Q 466.20000000000005 211.548 467.25000000000006 211.988 Q 468.30000000000007 212.428 468.76000000000005 212.428 Q 470.20000000000005 212.428 470.20000000000005 210.06799999999998 Q 470.20000000000005 207.708 470.12000000000006 206.808 Z  M 470.1000000000001 202.578 Q 470.1000000000001 202.578 470.1000000000001 201.853 Q 470.1000000000001 201.128 469.6700000000001 200.538 Q 469.24000000000007 199.948 468.32000000000005 199.948 Q 467.40000000000003 199.948 466.8400000000001 200.788 Q 466.2800000000001 201.628 466.2800000000001 202.918 Q 466.2800000000001 204.208 466.81000000000006 204.96800000000002 Q 467.3400000000001 205.728 468.44000000000005 205.728 Q 469.5400000000001 205.728 469.86000000000007 204.788 Q 470.1000000000001 204.028 470.1000000000001 202.578 Z  M 190.32 225.49599999999998 Q 190.32 225.49599999999998 190.17 225.696 Q 190.02 225.89600000000002 188.95 228.036 Q 187.88 230.176 187.78 230.596 Q 188.62 230.37599999999998 189.49 230.37599999999998 Q 190.36 230.37599999999998 191.12 230.856 Q 192.36 231.676 192.36 233.49599999999998 Q 192.36 237.476 188.48 237.49599999999998 Q 188.46 237.49599999999998 188.42 237.49599999999998 Q 187 237.49599999999998 186.38 236.506 Q 185.76 235.516 185.7 233.87599999999998 Q 185.7 230.076 188.56 225.49599999999998 Q 189.04 224.696 189.4 224.456 Q 189.76 224.216 189.97 224.216 Q 190.18 224.216 190.4 224.37599999999998 Q 190.62 224.536 190.62 224.816 Q 190.62 225.096 190.32 225.49599999999998 Z  M 190.86 233.62599999999998 Q 190.86 233.62599999999998 190.86 233.221 Q 190.86 232.816 190.41 232.37599999999998 Q 189.96 231.93599999999998 189.2 231.93599999999998 Q 188.44 231.93599999999998 188.08 232.05599999999998 Q 187.8 232.176 187.64 232.36599999999999 Q 187.48 232.55599999999998 187.35 232.95600000000002 Q 187.22 233.356 187.22 234.046 Q 187.22 234.736 187.61 235.24599999999998 Q 188 235.756 188.56 235.756 Q 189.68 235.756 190.27 235.096 Q 190.86 234.43599999999998 190.86 233.62599999999998 Z  M 198.02 232.99599999999998 Q 197.3 233.11599999999999 195.98 233.11599999999999 Q 194.66 233.11599999999999 194.18 232.676 Q 193.7 232.236 193.7 230.766 Q 193.7 229.296 193.92 227.536 Q 194.14 225.776 194.41 224.946 Q 194.68 224.11599999999999 195.48 224.11599999999999 Q 196.02 224.11599999999999 196.1 224.576 Q 196.1 224.696 196.1 224.956 Q 196.1 225.216 195.98 225.696 Q 195.5 229.216 195.5 230.716 Q 195.5 231.076 195.52 231.316 Q 195.88 231.39600000000002 196.49 231.39600000000002 Q 197.1 231.39600000000002 198.04 231.276 Q 198.08 230.856 198.08 230.14600000000002 Q 198.08 229.43599999999998 198.1 228.956 Q 198.12 228.476 198.24 228.276 Q 198.36 228.076 198.93 228.076 Q 199.5 228.076 199.65 228.276 Q 199.8 228.476 199.8 228.826 Q 199.8 229.176 199.74 230.286 Q 199.68 231.39600000000002 199.68 236.536 Q 199.68 237.43599999999998 198.8 237.43599999999998 Q 198.76 237.43599999999998 198.72 237.43599999999998 Q 197.98 237.43599999999998 197.98 236.216 L 197.98 235.11599999999999 L 198.02 232.99599999999998 Z  M 209 237.39600000000002 Q 208.32 237.39600000000002 207.74 236.93599999999998 Q 207.74 236.93599999999998 207.48 236.716 L 207.48 242.716 Q 207.36 243.11599999999999 207.06 243.386 Q 206.76 243.656 206.42000000000002 243.656 Q 205.9 243.656 205.9 242.95600000000002 L 205.9 229.016 Q 206.02 228.49599999999998 206.19 228.276 Q 206.36 228.05599999999998 206.73 228.05599999999998 Q 207.1 228.05599999999998 207.21 228.226 Q 207.32 228.39600000000002 207.48 229.156 Q 207.56 228.756 208.12 228.416 Q 208.68 228.076 209.62 228.076 Q 211.66 228.076 212.52 229.55599999999998 Q 213.38 231.036 213.38 233.046 Q 213.38 235.05599999999998 212.21 236.226 Q 211.04 237.39600000000002 209 237.39600000000002 Z  M 207.48 231.39600000000002 L 207.48 235.11599999999999 Q 207.6 235.176 207.76 235.316 Q 208.34 235.836 209.02 235.836 Q 211.78 235.836 211.78 232.99599999999998 Q 211.78 230.576 210.54 229.93599999999998 Q 210.02 229.656 209.26 229.656 Q 208.52 229.756 208 230.30599999999998 Q 207.48 230.856 207.48 231.39600000000002 Z  M 217.94 228.096 Q 219.38 228.096 220.31 229.476 Q 221.24 230.856 221.24 232.786 Q 221.24 234.716 220.29 236.076 Q 219.34 237.43599999999998 217.77 237.43599999999998 Q 216.2 237.43599999999998 215.24 236.046 Q 214.28 234.656 214.28 232.95600000000002 Q 214.28 230.776 215.16 229.476 Q 216.1 228.096 217.94 228.096 Z  M 217.7 229.736 Q 216.86 229.736 216.32 230.61599999999999 Q 215.78 231.49599999999998 215.78 232.476 Q 215.78 233.99599999999998 216.38 234.796 Q 216.98 235.596 217.74 235.596 Q 219.1 235.596 219.48000000000002 234.416 Q 219.64 233.856 219.64 233.016 Q 219.64 229.736 217.7 229.736 Z  M 223.22 236.796 L 223 228.676 Q 223 228.296 223.26 228.05599999999998 Q 223.52 227.816 223.78 227.816 Q 224.42000000000002 227.816 224.52 228.356 Q 224.6 228.89600000000002 224.6 229.476 Q 225.68 228.05599999999998 227.3 228.05599999999998 Q 229.78 228.05599999999998 229.78 233.716 Q 229.78 234.236 229.78 235.286 Q 229.78 236.336 229.66 236.816 Q 229.52 237.416 228.8 237.416 Q 228.32 237.416 228.32 236.776 L 228.34 235.656 Q 228.34 233.336 228.19 232.486 Q 228.04000000000002 231.636 227.9 231.136 Q 227.56 230.05599999999998 226.8 230.05599999999998 Q 225.8 230.05599999999998 225.4 230.776 Q 224.96 231.55599999999998 224.88 232.61599999999999 Q 224.74 234.476 224.74 236.55599999999998 Q 224.74 236.95600000000002 224.44 237.196 Q 224.14 237.43599999999998 223.72 237.43599999999998 Q 223.22 237.43599999999998 223.22 236.796 Z  M 236.28 228.05599999999998 L 236.26 224.196 Q 236.26 223.11599999999999 236.95 223.11599999999999 Q 237.64 223.11599999999999 237.72 223.716 Q 237.76 223.976 237.82 226.856 Q 237.88 229.736 238.01 232.256 Q 238.14 234.776 238.14 236.95600000000002 Q 238.14 237.55599999999998 237.24 237.55599999999998 Q 236.64 237.55599999999998 236.64 236.716 Q 235.78 237.39600000000002 234.6 237.39600000000002 Q 233.1 237.39600000000002 232.17000000000002 236.276 Q 231.24 235.156 231.24 233.516 Q 231.24 231.87599999999998 231.91 230.446 Q 232.58 229.016 234 228.39600000000002 Q 234.88 228.016 235.7 228.016 Q 236 228.016 236.28 228.05599999999998 Z  M 236.39 230.786 Q 236.39 230.786 236.315 230.571 Q 236.24 230.356 236.04 230.12599999999998 Q 235.84 229.89600000000002 235.61 229.846 Q 235.38 229.796 235.06 229.796 Q 234.74 229.796 234.28 230.036 Q 233.82 230.276 233.5 230.816 Q 232.86 231.89600000000002 232.86 233.086 Q 232.86 234.276 233.32999999999998 235.026 Q 233.8 235.776 234.67000000000002 235.776 Q 235.54 235.776 236.04 234.916 Q 236.54 234.05599999999998 236.54 232.716 Q 236.54 231.216 236.39 230.786 Z  M 271.02 229.066 Q 271.02 229.066 271.02 229.221 Q 271.02 229.37599999999998 270.86 229.636 Q 270.7 229.89600000000002 270.5 229.976 Q 269.2 230.05599999999998 268.14 230.05599999999998 L 264.34000000000003 229.976 Q 263.86 229.976 263.86 229.49599999999998 Q 263.86 229.236 264.03 228.976 Q 264.2 228.716 264.44 228.676 L 268.24 228.756 Q 269.28 228.756 270.64 228.676 Q 271.02 228.756 271.02 229.066 Z  M 271.02 232.476 Q 271.02 232.736 270.87 232.976 Q 270.72 233.216 270.5 233.256 L 264.18 233.336 Q 263.72 233.336 263.72 232.836 Q 263.72 232.536 263.88 232.286 Q 264.04 232.036 264.28 231.99599999999998 Q 266.18 231.976 270.58000000000004 231.976 Q 271.02 231.99599999999998 271.02 232.476 Z  M 292.1 225.49599999999998 Q 292.1 225.49599999999998 291.95 225.696 Q 291.8 225.89600000000002 290.73 228.036 Q 289.65999999999997 230.176 289.56 230.596 Q 290.4 230.37599999999998 291.27 230.37599999999998 Q 292.14 230.37599999999998 292.9 230.856 Q 294.14 231.676 294.14 233.49599999999998 Q 294.14 237.476 290.26 237.49599999999998 Q 290.24 237.49599999999998 290.2 237.49599999999998 Q 288.78 237.49599999999998 288.15999999999997 236.506 Q 287.54 235.516 287.48 233.87599999999998 Q 287.48 230.076 290.34000000000003 225.49599999999998 Q 290.82 224.696 291.18 224.456 Q 291.54 224.216 291.75 224.216 Q 291.96000000000004 224.216 292.18 224.37599999999998 Q 292.4 224.536 292.4 224.816 Q 292.4 225.096 292.1 225.49599999999998 Z  M 292.64 233.62599999999998 Q 292.64 233.62599999999998 292.64 233.221 Q 292.64 232.816 292.19 232.37599999999998 Q 291.74 231.93599999999998 290.98 231.93599999999998 Q 290.22 231.93599999999998 289.86 232.05599999999998 Q 289.58 232.176 289.42 232.36599999999999 Q 289.26 232.55599999999998 289.13 232.95600000000002 Q 289 233.356 289 234.046 Q 289 234.736 289.39 235.24599999999998 Q 289.78 235.756 290.34000000000003 235.756 Q 291.46000000000004 235.756 292.05 235.096 Q 292.64 234.43599999999998 292.64 233.62599999999998 Z  M 299.8 232.99599999999998 Q 299.08000000000004 233.11599999999999 297.76 233.11599999999999 Q 296.44 233.11599999999999 295.96000000000004 232.676 Q 295.48 232.236 295.48 230.766 Q 295.48 229.296 295.7 227.536 Q 295.92 225.776 296.19 224.946 Q 296.46000000000004 224.11599999999999 297.26 224.11599999999999 Q 297.8 224.11599999999999 297.88 224.576 Q 297.88 224.696 297.88 224.956 Q 297.88 225.216 297.76 225.696 Q 297.28 229.216 297.28 230.716 Q 297.28 231.076 297.3 231.316 Q 297.66 231.39600000000002 298.27 231.39600000000002 Q 298.88 231.39600000000002 299.82 231.276 Q 299.86 230.856 299.86 230.14600000000002 Q 299.86 229.43599999999998 299.88 228.956 Q 299.9 228.476 300.02 228.276 Q 300.14 228.076 300.71000000000004 228.076 Q 301.28 228.076 301.43 228.276 Q 301.58000000000004 228.476 301.58000000000004 228.826 Q 301.58000000000004 229.176 301.52 230.286 Q 301.46000000000004 231.39600000000002 301.46000000000004 236.536 Q 301.46000000000004 237.43599999999998 300.58000000000004 237.43599999999998 Q 300.54 237.43599999999998 300.5 237.43599999999998 Q 299.76 237.43599999999998 299.76 236.216 L 299.76 235.11599999999999 L 299.8 232.99599999999998 Z  M 303.14 237.696 Q 303.14 237.61599999999999 303.2 237.416 Q 304.5 234.356 306.04 230.316 Q 307.58000000000004 226.276 308.88 223.156 Q 309.16 222.636 309.7 222.636 Q 309.94 222.636 310.1 222.776 Q 310.26 222.916 310.26 223.14600000000002 Q 310.26 223.37599999999998 309.76 224.536 Q 309.26 225.696 307.35 230.586 Q 305.44 235.476 304.42 237.816 Q 304.08 238.276 303.68 238.276 Q 303.14 238.276 303.14 237.696 Z  M 316.58000000000004 237.45600000000002 L 313.64 237.416 Q 313.44 237.416 313.24 237.416 Q 311.26 237.416 311.26 236.656 Q 311.26 236.11599999999999 311.46 235.636 Q 311.65999999999997 235.156 311.84000000000003 234.916 Q 312.02 234.676 312.56 234.11599999999999 Q 313.1 233.55599999999998 313.34000000000003 233.276 Q 313.58000000000004 232.99599999999998 314.78999999999996 231.856 Q 316 230.716 316.61 229.796 Q 317.22 228.87599999999998 317.22 227.856 Q 317.22 226.276 315.96000000000004 225.816 Q 315.6 225.696 315.22 225.696 Q 314.36 225.696 313.5 226.43599999999998 Q 313.15999999999997 226.756 312.78 226.756 Q 312.65999999999997 226.756 312.56 226.736 Q 312.06 226.61599999999999 312.06 226.036 Q 312.06 225.256 313.15999999999997 224.736 Q 314.34000000000003 224.176 315.73 224.176 Q 317.12 224.176 318.01 225.18599999999998 Q 318.9 226.196 318.9 227.696 Q 318.9 229.836 317.58000000000004 231.37599999999998 Q 316.96000000000004 232.096 316.32 232.716 Q 314.3 234.636 313.62 235.636 Q 314.52 235.696 315.85 235.696 Q 317.18 235.696 319.14 235.536 Q 319.44 235.596 319.63 235.80599999999998 Q 319.82 236.016 319.82 236.276 Q 319.82 236.95600000000002 319.1 237.216 Q 318.38 237.45600000000002 316.58000000000004 237.45600000000002 Z  M 403.15999999999997 229.066 Q 403.15999999999997 229.066 403.15999999999997 229.221 Q 403.15999999999997 229.37599999999998 403 229.636 Q 402.84000000000003 229.89600000000002 402.64 229.976 Q 401.34000000000003 230.05599999999998 400.28 230.05599999999998 L 396.48 229.976 Q 396 229.976 396 229.49599999999998 Q 396 229.236 396.17 228.976 Q 396.34000000000003 228.716 396.58000000000004 228.676 L 400.38 228.756 Q 401.42 228.756 402.78 228.676 Q 403.15999999999997 228.756 403.15999999999997 229.066 Z  M 403.15999999999997 232.476 Q 403.15999999999997 232.736 403.01 232.976 Q 402.86 233.216 402.64 233.256 L 396.32 233.336 Q 395.86 233.336 395.86 232.836 Q 395.86 232.536 396.02 232.286 Q 396.18 232.036 396.42 231.99599999999998 Q 398.32 231.976 402.72 231.976 Q 403.15999999999997 231.99599999999998 403.15999999999997 232.476 Z  M 418.68 225.736 Q 417.5 225.736 416.48 226.756 Q 416.2 226.956 415.98 226.956 Q 415.76 226.956 415.6 226.916 Q 415.14 226.776 415.14 226.276 Q 415.14 225.456 416.18 224.836 Q 417.22 224.216 418.64 224.216 Q 420.06 224.216 421.01 224.966 Q 421.96 225.716 421.96 226.916 Q 421.96 228.11599999999999 421.69 228.916 Q 421.41999999999996 229.716 420.52 230.236 Q 422.64 231.036 422.64 233.11599999999999 Q 422.64 234.87599999999998 421.58 236.14600000000002 Q 420.52 237.416 418.99 237.416 Q 417.46 237.416 416.29999999999995 236.68599999999998 Q 415.14 235.95600000000002 415.14 235.036 Q 415.14 234.856 415.34000000000003 234.61599999999999 Q 415.53999999999996 234.37599999999998 415.91999999999996 234.37599999999998 Q 416.29999999999995 234.37599999999998 416.74 234.726 Q 417.18 235.076 417.74 235.426 Q 418.29999999999995 235.776 419 235.776 Q 421 235.776 421 233.276 Q 421 232.316 420.31 231.726 Q 419.62 231.136 418.36 231.11599999999999 Q 418.1 231.096 417.97 231.076 Q 417.84000000000003 231.05599999999998 417.63 230.89600000000002 Q 417.41999999999996 230.736 417.41999999999996 230.39600000000002 Q 417.41999999999996 229.676 418.22 229.61599999999999 Q 419.02 229.55599999999998 419.65 228.89600000000002 Q 420.28 228.236 420.28 227.236 Q 420.28 226.676 419.79999999999995 226.206 Q 419.32 225.736 418.68 225.736 Z  M 429.14 237.45600000000002 L 426.2 237.416 Q 426 237.416 425.8 237.416 Q 423.82 237.416 423.82 236.656 Q 423.82 236.11599999999999 424.02 235.636 Q 424.22 235.156 424.4 234.916 Q 424.58000000000004 234.676 425.12 234.11599999999999 Q 425.65999999999997 233.55599999999998 425.9 233.276 Q 426.14 232.99599999999998 427.35 231.856 Q 428.56 230.716 429.16999999999996 229.796 Q 429.78 228.87599999999998 429.78 227.856 Q 429.78 226.276 428.52 225.816 Q 428.15999999999997 225.696 427.78 225.696 Q 426.91999999999996 225.696 426.06 226.43599999999998 Q 425.72 226.756 425.34000000000003 226.756 Q 425.22 226.756 425.12 226.736 Q 424.62 226.61599999999999 424.62 226.036 Q 424.62 225.256 425.72 224.736 Q 426.9 224.176 428.28999999999996 224.176 Q 429.68 224.176 430.57 225.18599999999998 Q 431.46000000000004 226.196 431.46000000000004 227.696 Q 431.46000000000004 229.836 430.14 231.37599999999998 Q 429.52 232.096 428.88 232.716 Q 426.86 234.636 426.18 235.636 Q 427.08000000000004 235.696 428.40999999999997 235.696 Q 429.74 235.696 431.7 235.536 Q 432 235.596 432.19 235.80599999999998 Q 432.38 236.016 432.38 236.276 Q 432.38 236.95600000000002 431.65999999999997 237.216 Q 430.94 237.45600000000002 429.14 237.45600000000002 Z  M 458.93999999999994 236.516 Q 458.93999999999994 237.45600000000002 458.08 237.45600000000002 Q 457.71999999999997 237.45600000000002 457.09999999999997 235.68599999999998 Q 456.47999999999996 233.916 455.43999999999994 232.95600000000002 Q 455.34 233.096 454.59 233.74599999999998 Q 453.84 234.39600000000002 453.7 234.536 L 453.7 236.536 Q 453.65999999999997 236.836 453.59999999999997 236.99599999999998 Q 453.53999999999996 237.156 453.33 237.296 Q 453.11999999999995 237.43599999999998 452.76 237.43599999999998 Q 452.21999999999997 237.43599999999998 452.21999999999997 236.776 Q 452.21999999999997 234.916 452.05999999999995 231.006 Q 451.9 227.096 451.9 223.99599999999998 Q 451.9 223.61599999999999 452.21 223.39600000000002 Q 452.52 223.176 452.85999999999996 223.176 Q 453.31999999999994 223.176 453.41999999999996 223.756 L 453.41999999999996 227.296 Q 453.41999999999996 227.93599999999998 453.43999999999994 228.256 Q 453.46 228.576 453.47999999999996 229.216 Q 453.52 230.536 453.61999999999995 232.196 Q 454.2 231.756 455.10999999999996 230.80599999999998 Q 456.02 229.856 456.47999999999996 229.176 Q 457.2 228.036 457.79999999999995 228.036 Q 457.96 228.036 458.11999999999995 228.11599999999999 Q 458.53999999999996 228.356 458.53999999999996 228.676 Q 458.53999999999996 228.99599999999998 458.26 229.516 Q 457.53999999999996 230.756 456.59999999999997 231.776 Q 457.49999999999994 232.776 458.4 234.636 Q 458.93999999999994 235.836 458.93999999999994 236.516 Z  M 465.84 236.596 Q 465.11999999999995 237.43599999999998 464.02 237.43599999999998 Q 462.91999999999996 237.43599999999998 462.11999999999995 236.756 Q 460.44 235.45600000000002 460.44 232.776 Q 460.44 230.676 461.59999999999997 229.406 Q 462.76 228.136 464.46 228.136 Q 466.15999999999997 228.136 466.78 229.296 Q 467.32 230.316 467.32 232.37599999999998 L 467.28 234.016 Q 467.28 235.176 467.39 237.226 Q 467.5 239.276 467.5 240.316 Q 467.5 242.036 466.65 242.846 Q 465.79999999999995 243.656 464.06 243.656 Q 463.02 243.656 461.94 243.216 Q 460.85999999999996 242.776 460.85999999999996 242.196 Q 460.85999999999996 241.776 461.09 241.55599999999998 Q 461.32 241.336 461.61999999999995 241.336 Q 461.91999999999996 241.336 462.96999999999997 241.776 Q 464.02 242.216 464.47999999999996 242.216 Q 465.91999999999996 242.216 465.91999999999996 239.856 Q 465.91999999999996 237.49599999999998 465.84 236.596 Z  M 465.82 232.36599999999999 Q 465.82 232.36599999999999 465.82 231.641 Q 465.82 230.916 465.39 230.326 Q 464.96 229.736 464.03999999999996 229.736 Q 463.11999999999995 229.736 462.56 230.576 Q 462 231.416 462 232.70600000000002 Q 462 233.99599999999998 462.53 234.756 Q 463.06 235.516 464.15999999999997 235.516 Q 465.26 235.516 465.58 234.576 Q 465.82 233.816 465.82 232.36599999999999 Z  M 191.32 266.264 Q 191.32 267.244 190.26 267.244 Q 190.04 267.244 189.87 267.054 Q 189.7 266.86400000000003 189.7 266.464 L 189.64 261.384 Q 189.64 258.86400000000003 189.7 256.644 Q 189.02 257.244 188.38 258.024 Q 187.74 258.804 187.51 259.064 Q 187.28 259.324 186.91 259.574 Q 186.54 259.824 186.22 259.824 Q 185.9 259.824 185.71 259.60400000000004 Q 185.52 259.384 185.52 259.064 Q 185.52 258.744 185.99 258.194 Q 186.46 257.644 189.46 254.464 Q 189.92 254.044 190.62 254.044 Q 190.96 254.044 191.18 254.244 Q 191.4 254.44400000000002 191.4 254.704 L 191.26 260.084 L 191.32 266.264 Z  M 198.12 267.244 L 195.18 267.204 Q 194.98 267.204 194.78 267.204 Q 192.8 267.204 192.8 266.444 Q 192.8 265.904 193 265.424 Q 193.2 264.944 193.38 264.704 Q 193.56 264.464 194.1 263.904 Q 194.64 263.344 194.88 263.064 Q 195.12 262.784 196.33 261.644 Q 197.54 260.504 198.15 259.584 Q 198.76 258.664 198.76 257.644 Q 198.76 256.064 197.5 255.604 Q 197.14 255.484 196.76 255.484 Q 195.9 255.484 195.04 256.224 Q 194.7 256.544 194.32 256.544 Q 194.2 256.544 194.1 256.524 Q 193.6 256.404 193.6 255.824 Q 193.6 255.044 194.7 254.524 Q 195.88 253.964 197.27 253.964 Q 198.66 253.964 199.55 254.974 Q 200.44 255.984 200.44 257.48400000000004 Q 200.44 259.624 199.12 261.164 Q 198.5 261.884 197.86 262.504 Q 195.84 264.424 195.16 265.424 Q 196.06 265.48400000000004 197.39 265.48400000000004 Q 198.72 265.48400000000004 200.68 265.324 Q 200.98 265.384 201.17000000000002 265.594 Q 201.36 265.804 201.36 266.064 Q 201.36 266.744 200.64 267.004 Q 199.92 267.244 198.12 267.244 Z  M 202.24 260.884 Q 202.24 258.204 203.2 256.164 Q 203.68 255.12400000000002 204.5 254.524 Q 205.32 253.924 206.38 253.924 Q 207.94 253.924 208.93 255.954 Q 209.92 257.98400000000004 209.92 260.774 Q 209.92 263.564 209 265.394 Q 208.07999999999998 267.224 206.4 267.224 Q 202.24 267.224 202.24 260.884 Z  M 206.2 265.384 Q 206.92 265.384 207.41 264.634 Q 207.9 263.884 208.07999999999998 262.954 Q 208.26 262.024 208.26 260.534 Q 208.26 259.044 207.86 257.36400000000003 Q 207.66 256.444 207.25 255.894 Q 206.84 255.344 206.26 255.344 Q 205.48 255.344 204.92 256.284 Q 203.92 257.98400000000004 203.92 260.804 Q 203.92 262.644 204.61 264.014 Q 205.3 265.384 206.2 265.384 Z  M 211.2 260.884 Q 211.2 258.204 212.16 256.164 Q 212.64 255.12400000000002 213.46 254.524 Q 214.28 253.924 215.34 253.924 Q 216.9 253.924 217.89 255.954 Q 218.88 257.98400000000004 218.88 260.774 Q 218.88 263.564 217.96 265.394 Q 217.04 267.224 215.36 267.224 Q 211.2 267.224 211.2 260.884 Z  M 215.16 265.384 Q 215.88 265.384 216.37 264.634 Q 216.86 263.884 217.04 262.954 Q 217.22 262.024 217.22 260.534 Q 217.22 259.044 216.82 257.36400000000003 Q 216.62 256.444 216.21 255.894 Q 215.8 255.344 215.22 255.344 Q 214.44 255.344 213.88 256.284 Q 212.88 257.98400000000004 212.88 260.804 Q 212.88 262.644 213.57 264.014 Q 214.26 265.384 215.16 265.384 Z  M 228.44 257.884 Q 229.88 257.884 230.81 259.264 Q 231.74 260.644 231.74 262.574 Q 231.74 264.504 230.79 265.86400000000003 Q 229.84 267.224 228.27 267.224 Q 226.7 267.224 225.74 265.834 Q 224.78 264.444 224.78 262.744 Q 224.78 260.564 225.66 259.264 Q 226.6 257.884 228.44 257.884 Z  M 228.2 259.524 Q 227.36 259.524 226.82 260.404 Q 226.28 261.284 226.28 262.264 Q 226.28 263.784 226.88 264.584 Q 227.48000000000002 265.384 228.24 265.384 Q 229.6 265.384 229.98000000000002 264.204 Q 230.14 263.644 230.14 262.804 Q 230.14 259.524 228.2 259.524 Z  M 233.72 266.584 L 233.5 258.464 Q 233.5 258.084 233.76 257.844 Q 234.02 257.60400000000004 234.28 257.60400000000004 Q 234.92000000000002 257.60400000000004 235.02 258.144 Q 235.1 258.684 235.1 259.264 Q 236.18 257.844 237.8 257.844 Q 240.28 257.844 240.28 263.504 Q 240.28 264.024 240.28 265.074 Q 240.28 266.124 240.16 266.60400000000004 Q 240.02 267.204 239.3 267.204 Q 238.82 267.204 238.82 266.564 L 238.84 265.444 Q 238.84 263.124 238.69 262.274 Q 238.54000000000002 261.424 238.4 260.924 Q 238.06 259.844 237.3 259.844 Q 236.3 259.844 235.9 260.564 Q 235.46 261.344 235.38 262.404 Q 235.24 264.264 235.24 266.344 Q 235.24 266.744 234.94 266.98400000000004 Q 234.64 267.224 234.22 267.224 Q 233.72 267.224 233.72 266.584 Z  M 242.34 260.404 Q 242.34 259.224 243.18 258.524 Q 244.02 257.824 245.13 257.824 Q 246.24 257.824 247.26 258.224 Q 248.28 258.624 248.28 259.284 Q 248.28 259.624 248.02 259.824 Q 247.76 260.024 247.57 260.024 Q 247.38 260.024 247.27 260.014 Q 247.16 260.004 246.47 259.644 Q 245.78 259.284 245.2 259.284 Q 244.62 259.284 244.21 259.574 Q 243.8 259.86400000000003 243.8 260.424 Q 243.8 260.98400000000004 244.27 261.304 Q 244.74 261.624 245.92000000000002 261.85400000000004 Q 247.1 262.084 247.73000000000002 262.504 Q 248.36 262.924 248.36 264.064 Q 248.36 265.724 247.49 266.414 Q 246.62 267.10400000000004 245.38 267.10400000000004 Q 244.14 267.10400000000004 243.27 266.764 Q 242.4 266.424 242.4 265.744 Q 242.4 264.964 243.18 264.964 Q 243.38 264.964 244.06 265.244 Q 244.74 265.524 245.41 265.524 Q 246.07999999999998 265.524 246.43 265.094 Q 246.78 264.664 246.78 264.10400000000004 Q 246.78 263.544 246.32 263.294 Q 245.86 263.044 244.92000000000002 262.884 Q 243.98000000000002 262.724 243.54 262.544 Q 242.34 262.064 242.34 260.404 Z  M 272.22 258.85400000000004 Q 272.22 258.85400000000004 272.22 259.009 Q 272.22 259.164 272.06 259.424 Q 271.9 259.684 271.70000000000005 259.764 Q 270.4 259.844 269.34000000000003 259.844 L 265.54 259.764 Q 265.06 259.764 265.06 259.284 Q 265.06 259.024 265.23 258.764 Q 265.4 258.504 265.64 258.464 L 269.44 258.544 Q 270.48 258.544 271.84000000000003 258.464 Q 272.22 258.544 272.22 258.85400000000004 Z  M 272.22 262.264 Q 272.22 262.524 272.07 262.764 Q 271.92 263.004 271.70000000000005 263.044 L 265.38 263.124 Q 264.92 263.124 264.92 262.624 Q 264.92 262.324 265.08000000000004 262.074 Q 265.24 261.824 265.48 261.784 Q 267.38 261.764 271.78000000000003 261.764 Q 272.22 261.784 272.22 262.264 Z  M 294.3 266.264 Q 294.3 267.244 293.24 267.244 Q 293.02000000000004 267.244 292.85 267.054 Q 292.68 266.86400000000003 292.68 266.464 L 292.62 261.384 Q 292.62 258.86400000000003 292.68 256.644 Q 292 257.244 291.36 258.024 Q 290.72 258.804 290.49 259.064 Q 290.26 259.324 289.89 259.574 Q 289.52000000000004 259.824 289.20000000000005 259.824 Q 288.88 259.824 288.69 259.60400000000004 Q 288.5 259.384 288.5 259.064 Q 288.5 258.744 288.97 258.194 Q 289.44 257.644 292.44 254.464 Q 292.90000000000003 254.044 293.6 254.044 Q 293.94 254.044 294.16 254.244 Q 294.38 254.44400000000002 294.38 254.704 L 294.24 260.084 L 294.3 266.264 Z  M 301.1 267.244 L 298.16 267.204 Q 297.96000000000004 267.204 297.76 267.204 Q 295.78000000000003 267.204 295.78000000000003 266.444 Q 295.78000000000003 265.904 295.98 265.424 Q 296.18 264.944 296.36 264.704 Q 296.54 264.464 297.08000000000004 263.904 Q 297.62 263.344 297.86 263.064 Q 298.1 262.784 299.31000000000006 261.644 Q 300.52000000000004 260.504 301.13 259.584 Q 301.74 258.664 301.74 257.644 Q 301.74 256.064 300.48 255.604 Q 300.12 255.484 299.74 255.484 Q 298.88 255.484 298.02000000000004 256.224 Q 297.68 256.544 297.3 256.544 Q 297.18 256.544 297.08000000000004 256.524 Q 296.58000000000004 256.404 296.58000000000004 255.824 Q 296.58000000000004 255.044 297.68 254.524 Q 298.86 253.964 300.25 253.964 Q 301.64000000000004 253.964 302.53000000000003 254.974 Q 303.42 255.984 303.42 257.48400000000004 Q 303.42 259.624 302.1 261.164 Q 301.48 261.884 300.84000000000003 262.504 Q 298.82000000000005 264.424 298.14000000000004 265.424 Q 299.04 265.48400000000004 300.37 265.48400000000004 Q 301.70000000000005 265.48400000000004 303.66 265.324 Q 303.96000000000004 265.384 304.15000000000003 265.594 Q 304.34000000000003 265.804 304.34000000000003 266.064 Q 304.34000000000003 266.744 303.62 267.004 Q 302.90000000000003 267.244 301.1 267.244 Z  M 305.22 260.884 Q 305.22 258.204 306.18 256.164 Q 306.66 255.12400000000002 307.48 254.524 Q 308.3 253.924 309.36 253.924 Q 310.92 253.924 311.91 255.954 Q 312.90000000000003 257.98400000000004 312.90000000000003 260.774 Q 312.90000000000003 263.564 311.98 265.394 Q 311.06 267.224 309.38 267.224 Q 305.22 267.224 305.22 260.884 Z  M 309.18 265.384 Q 309.90000000000003 265.384 310.39000000000004 264.634 Q 310.88 263.884 311.06 262.954 Q 311.24 262.024 311.24 260.534 Q 311.24 259.044 310.84000000000003 257.36400000000003 Q 310.64000000000004 256.444 310.23 255.894 Q 309.82000000000005 255.344 309.24 255.344 Q 308.46000000000004 255.344 307.90000000000003 256.284 Q 306.90000000000003 257.98400000000004 306.90000000000003 260.804 Q 306.90000000000003 262.644 307.59000000000003 264.014 Q 308.28000000000003 265.384 309.18 265.384 Z  M 314.18000000000006 260.884 Q 314.18000000000006 258.204 315.14000000000004 256.164 Q 315.62 255.12400000000002 316.44000000000005 254.524 Q 317.26 253.924 318.32000000000005 253.924 Q 319.88 253.924 320.87 255.954 Q 321.86 257.98400000000004 321.86 260.774 Q 321.86 263.564 320.94000000000005 265.394 Q 320.02000000000004 267.224 318.34000000000003 267.224 Q 314.18000000000006 267.224 314.18000000000006 260.884 Z  M 318.14000000000004 265.384 Q 318.86 265.384 319.35 264.634 Q 319.84000000000003 263.884 320.02000000000004 262.954 Q 320.20000000000005 262.024 320.20000000000005 260.534 Q 320.20000000000005 259.044 319.80000000000007 257.36400000000003 Q 319.6 256.444 319.19000000000005 255.894 Q 318.78000000000003 255.344 318.20000000000005 255.344 Q 317.4200000000001 255.344 316.86 256.284 Q 315.86 257.98400000000004 315.86 260.804 Q 315.86 262.644 316.55000000000007 264.014 Q 317.24 265.384 318.14000000000004 265.384 Z  M 323.40000000000003 267.48400000000004 Q 323.40000000000003 267.404 323.46000000000004 267.204 Q 324.76000000000005 264.144 326.30000000000007 260.10400000000004 Q 327.84000000000003 256.064 329.14000000000004 252.94400000000002 Q 329.4200000000001 252.424 329.96000000000004 252.424 Q 330.20000000000005 252.424 330.36 252.56400000000002 Q 330.52000000000004 252.704 330.52000000000004 252.93400000000003 Q 330.52000000000004 253.164 330.02000000000004 254.324 Q 329.52000000000004 255.484 327.61 260.374 Q 325.70000000000005 265.264 324.68000000000006 267.60400000000004 Q 324.34000000000003 268.064 323.94000000000005 268.064 Q 323.40000000000003 268.064 323.40000000000003 267.48400000000004 Z  M 337.30000000000007 266.264 Q 337.30000000000007 267.244 336.24 267.244 Q 336.02000000000004 267.244 335.85 267.054 Q 335.68000000000006 266.86400000000003 335.68000000000006 266.464 L 335.62 261.384 Q 335.62 258.86400000000003 335.68000000000006 256.644 Q 335.00000000000006 257.244 334.36 258.024 Q 333.72 258.804 333.49 259.064 Q 333.26000000000005 259.324 332.89000000000004 259.574 Q 332.52000000000004 259.824 332.20000000000005 259.824 Q 331.88000000000005 259.824 331.69000000000005 259.60400000000004 Q 331.50000000000006 259.384 331.50000000000006 259.064 Q 331.50000000000006 258.744 331.97 258.194 Q 332.44000000000005 257.644 335.44000000000005 254.464 Q 335.90000000000003 254.044 336.6 254.044 Q 336.94000000000005 254.044 337.1600000000001 254.244 Q 337.38000000000005 254.44400000000002 337.38000000000005 254.704 L 337.24 260.084 L 337.30000000000007 266.264 Z  M 338.86 260.884 Q 338.86 258.204 339.82000000000005 256.164 Q 340.30000000000007 255.12400000000002 341.12 254.524 Q 341.94000000000005 253.924 343 253.924 Q 344.56000000000006 253.924 345.55000000000007 255.954 Q 346.5400000000001 257.98400000000004 346.5400000000001 260.774 Q 346.5400000000001 263.564 345.62 265.394 Q 344.70000000000005 267.224 343.02000000000004 267.224 Q 338.86 267.224 338.86 260.884 Z  M 342.82000000000005 265.384 Q 343.5400000000001 265.384 344.03000000000003 264.634 Q 344.52000000000004 263.884 344.70000000000005 262.954 Q 344.88000000000005 262.024 344.88000000000005 260.534 Q 344.88000000000005 259.044 344.48 257.36400000000003 Q 344.28000000000003 256.444 343.87 255.894 Q 343.46000000000004 255.344 342.88 255.344 Q 342.1 255.344 341.5400000000001 256.284 Q 340.5400000000001 257.98400000000004 340.5400000000001 260.804 Q 340.5400000000001 262.644 341.23 264.014 Q 341.9200000000001 265.384 342.82000000000005 265.384 Z  M 402.68 258.85400000000004 Q 402.68 258.85400000000004 402.68 259.009 Q 402.68 259.164 402.52 259.424 Q 402.36 259.684 402.16 259.764 Q 400.86 259.844 399.8 259.844 L 396 259.764 Q 395.52 259.764 395.52 259.284 Q 395.52 259.024 395.69000000000005 258.764 Q 395.86 258.504 396.1 258.464 L 399.9 258.544 Q 400.94000000000005 258.544 402.3 258.464 Q 402.68 258.544 402.68 258.85400000000004 Z  M 402.68 262.264 Q 402.68 262.524 402.53000000000003 262.764 Q 402.38 263.004 402.16 263.044 L 395.84000000000003 263.124 Q 395.38 263.124 395.38 262.624 Q 395.38 262.324 395.54 262.074 Q 395.70000000000005 261.824 395.94000000000005 261.784 Q 397.84000000000003 261.764 402.24 261.764 Q 402.68 261.784 402.68 262.264 Z  M 415.56 266.264 Q 415.56 267.244 414.5 267.244 Q 414.28 267.244 414.11 267.054 Q 413.94 266.86400000000003 413.94 266.464 L 413.88 261.384 Q 413.88 258.86400000000003 413.94 256.644 Q 413.26 257.244 412.62 258.024 Q 411.98 258.804 411.75 259.064 Q 411.52 259.324 411.15 259.574 Q 410.78 259.824 410.46000000000004 259.824 Q 410.14 259.824 409.95000000000005 259.60400000000004 Q 409.76 259.384 409.76 259.064 Q 409.76 258.744 410.23 258.194 Q 410.70000000000005 257.644 413.70000000000005 254.464 Q 414.15999999999997 254.044 414.86 254.044 Q 415.20000000000005 254.044 415.42 254.244 Q 415.64 254.44400000000002 415.64 254.704 L 415.5 260.084 L 415.56 266.264 Z  M 422.36 267.244 L 419.41999999999996 267.204 Q 419.22 267.204 419.02 267.204 Q 417.03999999999996 267.204 417.03999999999996 266.444 Q 417.03999999999996 265.904 417.24 265.424 Q 417.44 264.944 417.62 264.704 Q 417.8 264.464 418.34000000000003 263.904 Q 418.88 263.344 419.12 263.064 Q 419.36 262.784 420.57 261.644 Q 421.78 260.504 422.39 259.584 Q 423 258.664 423 257.644 Q 423 256.064 421.74 255.604 Q 421.38 255.484 421 255.484 Q 420.14 255.484 419.28 256.224 Q 418.94 256.544 418.56 256.544 Q 418.44 256.544 418.34000000000003 256.524 Q 417.84000000000003 256.404 417.84000000000003 255.824 Q 417.84000000000003 255.044 418.94 254.524 Q 420.12 253.964 421.51 253.964 Q 422.9 253.964 423.78999999999996 254.974 Q 424.68 255.984 424.68 257.48400000000004 Q 424.68 259.624 423.36 261.164 Q 422.74 261.884 422.1 262.504 Q 420.08000000000004 264.424 419.4 265.424 Q 420.3 265.48400000000004 421.63 265.48400000000004 Q 422.96000000000004 265.48400000000004 424.91999999999996 265.324 Q 425.22 265.384 425.40999999999997 265.594 Q 425.6 265.804 425.6 266.064 Q 425.6 266.744 424.88 267.004 Q 424.15999999999997 267.244 422.36 267.244 Z  M 426.48 260.884 Q 426.48 258.204 427.44000000000005 256.164 Q 427.92 255.12400000000002 428.74 254.524 Q 429.56 253.924 430.62 253.924 Q 432.18 253.924 433.17 255.954 Q 434.16 257.98400000000004 434.16 260.774 Q 434.16 263.564 433.24 265.394 Q 432.32000000000005 267.224 430.64 267.224 Q 426.48 267.224 426.48 260.884 Z  M 430.44000000000005 265.384 Q 431.16 265.384 431.65 264.634 Q 432.14 263.884 432.32000000000005 262.954 Q 432.5 262.024 432.5 260.534 Q 432.5 259.044 432.1 257.36400000000003 Q 431.9 256.444 431.49 255.894 Q 431.08000000000004 255.344 430.5 255.344 Q 429.72 255.344 429.16 256.284 Q 428.16 257.98400000000004 428.16 260.804 Q 428.16 262.644 428.85 264.014 Q 429.54 265.384 430.44000000000005 265.384 Z  M 461.12 266.304 Q 461.12 267.244 460.26000000000005 267.244 Q 459.90000000000003 267.244 459.28000000000003 265.474 Q 458.66 263.704 457.62 262.744 Q 457.52000000000004 262.884 456.77000000000004 263.534 Q 456.02000000000004 264.184 455.88000000000005 264.324 L 455.88000000000005 266.324 Q 455.84000000000003 266.624 455.78000000000003 266.784 Q 455.72 266.944 455.51000000000005 267.084 Q 455.3 267.224 454.94000000000005 267.224 Q 454.40000000000003 267.224 454.40000000000003 266.564 Q 454.40000000000003 264.704 454.24 260.794 Q 454.08000000000004 256.884 454.08000000000004 253.784 Q 454.08000000000004 253.404 454.39000000000004 253.18400000000003 Q 454.70000000000005 252.964 455.04 252.964 Q 455.5 252.964 455.6 253.544 L 455.6 257.084 Q 455.6 257.724 455.62 258.044 Q 455.64000000000004 258.36400000000003 455.66 259.004 Q 455.70000000000005 260.324 455.8 261.98400000000004 Q 456.38000000000005 261.544 457.29 260.594 Q 458.20000000000005 259.644 458.66 258.964 Q 459.38000000000005 257.824 459.98 257.824 Q 460.14000000000004 257.824 460.3 257.904 Q 460.72 258.144 460.72 258.464 Q 460.72 258.784 460.44000000000005 259.304 Q 459.72 260.544 458.78000000000003 261.564 Q 459.68 262.564 460.58000000000004 264.424 Q 461.12 265.624 461.12 266.304 Z  M 468.02000000000004 266.384 Q 467.3 267.224 466.20000000000005 267.224 Q 465.1 267.224 464.3 266.544 Q 462.62000000000006 265.244 462.62000000000006 262.564 Q 462.62000000000006 260.464 463.78000000000003 259.194 Q 464.94000000000005 257.924 466.64000000000004 257.924 Q 468.34000000000003 257.924 468.96000000000004 259.084 Q 469.50000000000006 260.10400000000004 469.50000000000006 262.164 L 469.46000000000004 263.804 Q 469.46000000000004 264.964 469.57000000000005 267.014 Q 469.68000000000006 269.064 469.68000000000006 270.10400000000004 Q 469.68000000000006 271.824 468.83000000000004 272.634 Q 467.98 273.444 466.24000000000007 273.444 Q 465.20000000000005 273.444 464.12000000000006 273.004 Q 463.04 272.564 463.04 271.98400000000004 Q 463.04 271.564 463.27000000000004 271.344 Q 463.50000000000006 271.124 463.8 271.124 Q 464.1 271.124 465.15000000000003 271.564 Q 466.20000000000005 272.004 466.66 272.004 Q 468.1 272.004 468.1 269.644 Q 468.1 267.284 468.02000000000004 266.384 Z  M 468.00000000000006 262.154 Q 468.00000000000006 262.154 468.00000000000006 261.429 Q 468.00000000000006 260.704 467.57000000000005 260.11400000000003 Q 467.14000000000004 259.524 466.22 259.524 Q 465.3 259.524 464.74000000000007 260.36400000000003 Q 464.18000000000006 261.204 464.18000000000006 262.494 Q 464.18000000000006 263.784 464.71000000000004 264.544 Q 465.24000000000007 265.304 466.34000000000003 265.304 Q 467.44000000000005 265.304 467.76000000000005 264.36400000000003 Q 468.00000000000006 263.60400000000004 468.00000000000006 262.154 Z " fill-rule="evenodd" fill="rgb(0,0,0)" fill-opacity="0.965" stroke-width="1" stroke="rgba(0,0,0,0)" stroke-linejoin="miter" stroke-linecap="square"/><path d=" M 186.26 289.0286674574931 L 187.26 289.0486674574931 Q 187.6 289.0486674574931 187.64 289.0286674574931 L 187.64 284.9286674574931 Q 187.66 284.5886674574931 187.98 284.3486674574931 Q 188.3 284.1086674574931 188.58 284.1086674574931 Q 188.86 284.1086674574931 189.03 284.2886674574931 Q 189.2 284.4686674574931 189.18 284.8486674574931 Q 189.16 285.2286674574931 189.16 289.0086674574931 L 191.5 288.9286674574931 Q 192.1 288.9286674574931 192.1 289.6286674574931 Q 192.1 290.1486674574931 191.79 290.4086674574931 Q 191.48 290.6686674574931 191.13 290.6886674574931 Q 190.78 290.7086674574931 190.44 290.7086674574931 L 189.22 290.6886674574931 Q 189.22 291.5086674574931 189.39 293.9286674574931 Q 189.56 296.3486674574931 189.66 297.05866745749313 Q 189.76 297.7686674574931 189.7 297.9786674574931 Q 189.64 298.1886674574931 189.48 298.2686674574931 Q 189.22 298.3886674574931 188.78 298.3886674574931 Q 188.34 298.3886674574931 188.26 297.9086674574931 Q 187.86 295.2886674574931 187.72 290.7086674574931 Q 187.54 290.7286674574931 186.34 290.7286674574931 Q 185.14 290.7286674574931 185.14 290.0286674574931 Q 185.14 289.0286674574931 186.26 289.0286674574931 Z  M 196.18 289.0486674574931 Q 197.62 289.0486674574931 198.55 290.4286674574931 Q 199.48 291.8086674574931 199.48 293.7386674574931 Q 199.48 295.6686674574931 198.53 297.0286674574931 Q 197.58 298.3886674574931 196.01 298.3886674574931 Q 194.44 298.3886674574931 193.48 296.99866745749307 Q 192.52 295.6086674574931 192.52 293.9086674574931 Q 192.52 291.7286674574931 193.4 290.4286674574931 Q 194.34 289.0486674574931 196.18 289.0486674574931 Z  M 195.94 290.6886674574931 Q 195.1 290.6886674574931 194.56 291.5686674574931 Q 194.02 292.4486674574931 194.02 293.4286674574931 Q 194.02 294.9486674574931 194.62 295.74866745749307 Q 195.22 296.5486674574931 195.98 296.5486674574931 Q 197.34 296.5486674574931 197.72 295.3686674574931 Q 197.88 294.80866745749313 197.88 293.9686674574931 Q 197.88 290.6886674574931 195.94 290.6886674574931 Z  M 201.2 289.0286674574931 L 202.2 289.0486674574931 Q 202.54 289.0486674574931 202.58 289.0286674574931 L 202.58 284.9286674574931 Q 202.6 284.5886674574931 202.92000000000002 284.3486674574931 Q 203.24 284.1086674574931 203.52 284.1086674574931 Q 203.8 284.1086674574931 203.97 284.2886674574931 Q 204.14 284.4686674574931 204.12 284.8486674574931 Q 204.1 285.2286674574931 204.1 289.0086674574931 L 206.44 288.9286674574931 Q 207.04 288.9286674574931 207.04 289.6286674574931 Q 207.04 290.1486674574931 206.73 290.4086674574931 Q 206.42000000000002 290.6686674574931 206.07 290.6886674574931 Q 205.72 290.7086674574931 205.38 290.7086674574931 L 204.16 290.6886674574931 Q 204.16 291.5086674574931 204.33 293.9286674574931 Q 204.5 296.3486674574931 204.6 297.05866745749313 Q 204.7 297.7686674574931 204.64 297.9786674574931 Q 204.58 298.1886674574931 204.42000000000002 298.2686674574931 Q 204.16 298.3886674574931 203.72 298.3886674574931 Q 203.28 298.3886674574931 203.2 297.9086674574931 Q 202.8 295.2886674574931 202.66 290.7086674574931 Q 202.48 290.7286674574931 201.28 290.7286674574931 Q 200.08 290.7286674574931 200.08 290.0286674574931 Q 200.08 289.0286674574931 201.2 289.0286674574931 Z  M 213.16 289.0286674574931 Q 214.04 289.0286674574931 214.04 290.5286674574931 Q 214.04 290.6886674574931 214.04 290.8686674574931 L 214 292.2686674574931 Q 213.98 292.9286674574931 213.98 293.5686674574931 L 214.28 298.0886674574931 Q 214.28 298.5886674574931 213.26 298.5886674574931 Q 213.2 298.5886674574931 212.97 298.5886674574931 Q 212.74 298.5886674574931 212.65 298.4086674574931 Q 212.56 298.2286674574931 212.63 297.9686674574931 Q 212.7 297.7086674574931 212.57999999999998 297.3886674574931 Q 211.66 298.3686674574931 210.14 298.3686674574931 Q 207.32 298.3686674574931 207.32 294.0086674574931 Q 207.32 291.5886674574931 208.23 290.3486674574931 Q 209.14 289.1086674574931 210.84 289.1086674574931 Q 211.64 289.1086674574931 212.44 289.3886674574931 Q 212.7 289.0286674574931 213.16 289.0286674574931 Z  M 211.07999999999998 290.8486674574931 Q 209.94 290.8486674574931 209.38 291.5086674574931 Q 208.82 292.1686674574931 208.82 293.9286674574931 Q 208.82 296.8886674574931 210.42000000000002 296.8886674574931 Q 210.84 296.8886674574931 211.35 296.5086674574931 Q 211.86 296.1286674574931 212.06 295.6486674574931 Q 212.44 294.5686674574931 212.44 293.2886674574931 Q 212.44 292.0086674574931 212.13 291.4286674574931 Q 211.82 290.8486674574931 211.07999999999998 290.8486674574931 Z  M 221 289.0286674574931 Q 221.88 289.0286674574931 221.88 290.5286674574931 Q 221.88 290.6886674574931 221.88 290.8686674574931 L 221.84 292.2686674574931 Q 221.82 292.9286674574931 221.82 293.5686674574931 L 222.12 298.0886674574931 Q 222.12 298.5886674574931 221.1 298.5886674574931 Q 221.04 298.5886674574931 220.81 298.5886674574931 Q 220.57999999999998 298.5886674574931 220.49 298.4086674574931 Q 220.4 298.2286674574931 220.47 297.9686674574931 Q 220.54 297.7086674574931 220.42000000000002 297.3886674574931 Q 219.5 298.3686674574931 217.98000000000002 298.3686674574931 Q 215.16 298.3686674574931 215.16 294.0086674574931 Q 215.16 291.5886674574931 216.07 290.3486674574931 Q 216.98 289.1086674574931 218.68 289.1086674574931 Q 219.48000000000002 289.1086674574931 220.28 289.3886674574931 Q 220.54 289.0286674574931 221 289.0286674574931 Z  M 218.92000000000002 290.8486674574931 Q 217.78 290.8486674574931 217.22 291.5086674574931 Q 216.66 292.1686674574931 216.66 293.9286674574931 Q 216.66 296.8886674574931 218.26 296.8886674574931 Q 218.68 296.8886674574931 219.19 296.5086674574931 Q 219.7 296.1286674574931 219.9 295.6486674574931 Q 220.28 294.5686674574931 220.28 293.2886674574931 Q 220.28 292.0086674574931 219.97 291.4286674574931 Q 219.66 290.8486674574931 218.92000000000002 290.8486674574931 Z  M 223.21 285.4186674574931 Q 223.21 285.4186674574931 223.235 285.0436674574931 Q 223.26 284.6686674574931 223.45 284.4386674574931 Q 223.64 284.2086674574931 224.06 284.2086674574931 Q 224.92000000000002 284.2086674574931 224.92000000000002 284.9086674574931 Q 224.92000000000002 285.4486674574931 224.82999999999998 287.7286674574931 Q 224.74 290.0086674574931 224.74 291.8086674574931 Q 224.74 293.6086674574931 224.88 294.7086674574931 Q 225.12 296.6286674574931 225.56 296.6286674574931 Q 226 296.6286674574931 226.22 296.0086674574931 Q 226.32 295.7686674574931 226.54 295.5786674574931 Q 226.76 295.3886674574931 227.1 295.3886674574931 Q 227.8 295.3886674574931 227.8 296.5686674574931 Q 227.8 297.2086674574931 227.11 297.8386674574931 Q 226.42000000000002 298.4686674574931 225.74 298.4686674574931 Q 225.06 298.4686674574931 224.65 298.2386674574931 Q 224.24 298.0086674574931 223.99 297.5486674574931 Q 223.74 297.0886674574931 223.59 296.6586674574931 Q 223.44 296.2286674574931 223.38 295.6086674574931 Q 223.26 294.6086674574931 223.21 292.3986674574931 Q 223.16 290.1886674574931 223.16 288.1786674574931 Q 223.16 286.1686674574931 223.21 285.4186674574931 Z  M 402.89999999999986 290.0186674574931 Q 402.89999999999986 290.0186674574931 402.89999999999986 290.1736674574931 Q 402.89999999999986 290.3286674574931 402.7399999999999 290.5886674574931 Q 402.57999999999987 290.8486674574931 402.3799999999999 290.9286674574931 Q 401.07999999999987 291.0086674574931 400.01999999999987 291.0086674574931 L 396.2199999999999 290.9286674574931 Q 395.7399999999999 290.9286674574931 395.7399999999999 290.4486674574931 Q 395.7399999999999 290.1886674574931 395.90999999999985 289.9286674574931 Q 396.07999999999987 289.6686674574931 396.3199999999999 289.6286674574931 L 400.1199999999999 289.7086674574931 Q 401.15999999999985 289.7086674574931 402.51999999999987 289.6286674574931 Q 402.89999999999986 289.7086674574931 402.89999999999986 290.0186674574931 Z  M 402.89999999999986 293.4286674574931 Q 402.89999999999986 293.6886674574931 402.7499999999999 293.9286674574931 Q 402.5999999999999 294.1686674574931 402.3799999999999 294.2086674574931 L 396.05999999999983 294.2886674574931 Q 395.5999999999999 294.2886674574931 395.5999999999999 293.7886674574931 Q 395.5999999999999 293.4886674574931 395.7599999999999 293.2386674574931 Q 395.91999999999985 292.9886674574931 396.15999999999985 292.9486674574931 Q 398.05999999999983 292.9286674574931 402.45999999999987 292.9286674574931 Q 402.89999999999986 292.9486674574931 402.89999999999986 293.4286674574931 Z  M 419.9199999999999 298.4086674574931 L 416.9799999999999 298.3686674574931 Q 416.77999999999986 298.3686674574931 416.5799999999999 298.3686674574931 Q 414.5999999999999 298.3686674574931 414.5999999999999 297.6086674574931 Q 414.5999999999999 297.0686674574931 414.7999999999999 296.5886674574931 Q 414.9999999999999 296.1086674574931 415.1799999999999 295.8686674574931 Q 415.3599999999999 295.6286674574931 415.89999999999986 295.0686674574931 Q 416.4399999999999 294.5086674574931 416.6799999999999 294.2286674574931 Q 416.9199999999999 293.9486674574931 418.1299999999999 292.8086674574931 Q 419.3399999999999 291.6686674574931 419.9499999999999 290.74866745749307 Q 420.5599999999999 289.8286674574931 420.5599999999999 288.8086674574931 Q 420.5599999999999 287.2286674574931 419.2999999999999 286.7686674574931 Q 418.9399999999999 286.6486674574931 418.5599999999999 286.6486674574931 Q 417.6999999999999 286.6486674574931 416.8399999999999 287.3886674574931 Q 416.4999999999999 287.7086674574931 416.1199999999999 287.7086674574931 Q 415.9999999999999 287.7086674574931 415.89999999999986 287.6886674574931 Q 415.39999999999986 287.5686674574931 415.39999999999986 286.9886674574931 Q 415.39999999999986 286.2086674574931 416.4999999999999 285.6886674574931 Q 417.6799999999999 285.1286674574931 419.0699999999999 285.1286674574931 Q 420.4599999999999 285.1286674574931 421.3499999999999 286.1386674574931 Q 422.2399999999999 287.1486674574931 422.2399999999999 288.6486674574931 Q 422.2399999999999 290.7886674574931 420.9199999999999 292.3286674574931 Q 420.2999999999999 293.0486674574931 419.65999999999985 293.6686674574931 Q 417.6399999999999 295.5886674574931 416.9599999999999 296.5886674574931 Q 417.8599999999999 296.6486674574931 419.1899999999999 296.6486674574931 Q 420.51999999999987 296.6486674574931 422.4799999999999 296.4886674574931 Q 422.77999999999986 296.5486674574931 422.9699999999999 296.7586674574931 Q 423.15999999999985 296.9686674574931 423.15999999999985 297.2286674574931 Q 423.15999999999985 297.9086674574931 422.4399999999999 298.1686674574931 Q 421.7199999999999 298.4086674574931 419.9199999999999 298.4086674574931 Z  M 429.7399999999999 297.4286674574931 Q 429.7399999999999 298.4086674574931 428.6799999999999 298.4086674574931 Q 428.4599999999999 298.4086674574931 428.2899999999999 298.2186674574931 Q 428.1199999999999 298.0286674574931 428.1199999999999 297.6286674574931 L 428.0599999999999 292.5486674574931 Q 428.0599999999999 290.0286674574931 428.1199999999999 287.8086674574931 Q 427.43999999999994 288.4086674574931 426.7999999999999 289.1886674574931 Q 426.1599999999999 289.9686674574931 425.9299999999999 290.2286674574931 Q 425.69999999999993 290.4886674574931 425.3299999999999 290.7386674574931 Q 424.9599999999999 290.9886674574931 424.6399999999999 290.9886674574931 Q 424.31999999999994 290.9886674574931 424.1299999999999 290.7686674574931 Q 423.93999999999994 290.5486674574931 423.93999999999994 290.2286674574931 Q 423.93999999999994 289.9086674574931 424.4099999999999 289.3586674574931 Q 424.8799999999999 288.8086674574931 427.8799999999999 285.6286674574931 Q 428.3399999999999 285.2086674574931 429.0399999999999 285.2086674574931 Q 429.3799999999999 285.2086674574931 429.5999999999999 285.4086674574931 Q 429.81999999999994 285.6086674574931 429.81999999999994 285.8686674574931 L 429.6799999999999 291.24866745749307 L 429.7399999999999 297.4286674574931 Z  M 437.4599999999999 287.9486674574931 L 437.4399999999999 289.9486674574931 Q 437.4399999999999 290.6286674574931 437.4399999999999 293.7286674574931 L 437.4799999999999 297.5286674574931 Q 437.4799999999999 297.8886674574931 437.1699999999999 298.1186674574931 Q 436.8599999999999 298.3486674574931 436.5899999999999 298.3486674574931 Q 436.3199999999999 298.3486674574931 436.15999999999985 298.0986674574931 Q 435.9999999999999 297.8486674574931 435.9799999999999 297.5286674574931 Q 435.8399999999999 294.5886674574931 435.8399999999999 291.4486674574931 Q 435.3199999999999 292.1286674574931 433.7399999999999 292.1286674574931 Q 432.65999999999985 292.1286674574931 431.9599999999999 291.0086674574931 Q 431.2599999999999 289.8886674574931 431.2599999999999 288.5886674574931 Q 431.2599999999999 286.8686674574931 432.3299999999999 285.9586674574931 Q 433.39999999999986 285.0486674574931 435.0399999999999 285.0486674574931 Q 436.6799999999999 285.0486674574931 437.2999999999999 286.3086674574931 Q 437.4599999999999 286.6486674574931 437.4599999999999 287.9486674574931 Z  M 435.8799999999999 288.4286674574931 L 435.89999999999986 287.4486674574931 Q 435.89999999999986 286.9686674574931 435.8199999999999 286.8186674574931 Q 435.7399999999999 286.6686674574931 435.6199999999999 286.5886674574931 Q 435.4799999999999 286.4486674574931 435.2899999999999 286.4486674574931 Q 435.0999999999999 286.4486674574931 434.7899999999999 286.5186674574931 Q 434.4799999999999 286.5886674574931 433.9899999999999 286.7986674574931 Q 433.4999999999999 287.0086674574931 433.1299999999999 287.49866745749307 Q 432.7599999999999 287.9886674574931 432.7599999999999 288.7686674574931 Q 432.7599999999999 289.5486674574931 433.15999999999985 290.0486674574931 Q 433.5599999999999 290.5486674574931 433.9999999999999 290.5486674574931 Q 434.1199999999999 290.5486674574931 434.2599999999999 290.5086674574931 Q 435.4599999999999 290.1886674574931 435.8799999999999 289.8686674574931 L 435.8799999999999 288.4286674574931 Z  M 439.6199999999999 296.9086674574931 Q 439.7399999999999 296.2886674574931 440.27999999999986 296.2886674574931 Q 440.81999999999994 296.2886674574931 440.9999999999999 296.8486674574931 Q 440.9999999999999 298.1686674574931 440.5799999999999 299.2286674574931 Q 440.4399999999999 299.6086674574931 440.1699999999999 299.8686674574931 Q 439.89999999999986 300.1286674574931 439.5999999999999 300.1286674574931 Q 438.9399999999999 300.1286674574931 438.9399999999999 299.4286674574931 Q 438.9399999999999 299.2086674574931 438.9999999999999 299.0086674574931 Q 439.6199999999999 298.30866745749313 439.6199999999999 296.9086674574931 Z  M 444.4799999999999 289.74866745749307 Q 445.2999999999999 289.4486674574931 446.0599999999999 289.4486674574931 Q 446.8199999999999 289.4486674574931 447.5299999999999 289.6886674574931 Q 448.2399999999999 289.9286674574931 448.82999999999987 290.4286674574931 Q 449.4199999999999 290.9286674574931 449.7799999999999 291.7986674574931 Q 450.1399999999999 292.6686674574931 450.1399999999999 293.80866745749313 Q 450.1399999999999 295.7286674574931 449.01999999999987 297.0486674574931 Q 447.89999999999986 298.3686674574931 446.4299999999999 298.3686674574931 Q 444.95999999999987 298.3686674574931 443.8499999999999 297.6986674574931 Q 442.7399999999999 297.0286674574931 442.7399999999999 296.2286674574931 Q 442.7399999999999 295.8486674574931 442.82999999999987 295.6586674574931 Q 442.9199999999999 295.4686674574931 443.1599999999999 295.3486674574931 Q 443.39999999999986 295.2286674574931 443.58999999999986 295.2286674574931 Q 443.7799999999999 295.2286674574931 444.1099999999999 295.4586674574931 Q 444.4399999999999 295.6886674574931 445.0399999999999 296.1086674574931 Q 445.6399999999999 296.5286674574931 446.4199999999999 296.5286674574931 Q 447.1999999999999 296.5286674574931 447.7999999999999 295.7386674574931 Q 448.39999999999986 294.9486674574931 448.39999999999986 294.0086674574931 Q 448.39999999999986 291.3086674574931 445.9799999999999 291.3086674574931 Q 445.45999999999987 291.3086674574931 444.76999999999987 291.4086674574931 Q 444.07999999999987 291.5086674574931 443.8699999999999 291.5286674574931 Q 443.6599999999999 291.5486674574931 443.2999999999999 291.3886674574931 Q 442.8799999999999 290.9886674574931 442.8799999999999 288.8386674574931 Q 442.8799999999999 286.6886674574931 442.9799999999999 286.0586674574931 Q 443.07999999999987 285.4286674574931 443.3199999999999 285.3286674574931 Q 443.7399999999999 285.1486674574931 445.82999999999987 285.1486674574931 Q 447.9199999999999 285.1486674574931 449.1799999999999 285.5486674574931 Q 449.57999999999987 285.7886674574931 449.57999999999987 286.2386674574931 Q 449.57999999999987 286.6886674574931 449.32999999999987 286.9686674574931 Q 449.07999999999987 287.24866745749307 448.7999999999999 287.1886674574931 Q 447.1399999999999 286.8286674574931 445.45999999999987 286.8286674574931 Q 444.9399999999999 286.8286674574931 444.4199999999999 286.8686674574931 Q 444.4199999999999 287.6486674574931 444.4799999999999 289.74866745749307 Z  M 463.01999999999987 297.4686674574931 Q 463.01999999999987 298.4086674574931 462.1599999999999 298.4086674574931 Q 461.7999999999999 298.4086674574931 461.1799999999999 296.6386674574931 Q 460.5599999999999 294.8686674574931 459.51999999999987 293.9086674574931 Q 459.4199999999999 294.0486674574931 458.6699999999999 294.6986674574931 Q 457.9199999999999 295.3486674574931 457.7799999999999 295.4886674574931 L 457.7799999999999 297.4886674574931 Q 457.7399999999999 297.7886674574931 457.6799999999999 297.9486674574931 Q 457.6199999999999 298.1086674574931 457.4099999999999 298.24866745749307 Q 457.1999999999999 298.3886674574931 456.8399999999999 298.3886674574931 Q 456.2999999999999 298.3886674574931 456.2999999999999 297.7286674574931 Q 456.2999999999999 295.8686674574931 456.1399999999999 291.9586674574931 Q 455.9799999999999 288.0486674574931 455.9799999999999 284.9486674574931 Q 455.9799999999999 284.5686674574931 456.2899999999999 284.3486674574931 Q 456.5999999999999 284.1286674574931 456.9399999999999 284.1286674574931 Q 457.39999999999986 284.1286674574931 457.4999999999999 284.7086674574931 L 457.4999999999999 288.24866745749307 Q 457.4999999999999 288.8886674574931 457.51999999999987 289.2086674574931 Q 457.5399999999999 289.5286674574931 457.5599999999999 290.1686674574931 Q 457.5999999999999 291.4886674574931 457.6999999999999 293.1486674574931 Q 458.2799999999999 292.7086674574931 459.1899999999999 291.7586674574931 Q 460.0999999999999 290.8086674574931 460.5599999999999 290.1286674574931 Q 461.2799999999999 288.9886674574931 461.8799999999999 288.9886674574931 Q 462.0399999999999 288.9886674574931 462.1999999999999 289.0686674574931 Q 462.6199999999999 289.3086674574931 462.6199999999999 289.6286674574931 Q 462.6199999999999 289.9486674574931 462.3399999999999 290.4686674574931 Q 461.6199999999999 291.7086674574931 460.6799999999999 292.7286674574931 Q 461.57999999999987 293.7286674574931 462.4799999999999 295.5886674574931 Q 463.01999999999987 296.7886674574931 463.01999999999987 297.4686674574931 Z  M 469.9199999999999 297.5486674574931 Q 469.1999999999999 298.3886674574931 468.0999999999999 298.3886674574931 Q 466.9999999999999 298.3886674574931 466.1999999999999 297.7086674574931 Q 464.5199999999999 296.4086674574931 464.5199999999999 293.7286674574931 Q 464.5199999999999 291.6286674574931 465.6799999999999 290.3586674574931 Q 466.8399999999999 289.0886674574931 468.5399999999999 289.0886674574931 Q 470.2399999999999 289.0886674574931 470.8599999999999 290.24866745749307 Q 471.3999999999999 291.2686674574931 471.3999999999999 293.3286674574931 L 471.3599999999999 294.9686674574931 Q 471.3599999999999 296.1286674574931 471.4699999999999 298.1786674574931 Q 471.5799999999999 300.2286674574931 471.5799999999999 301.2686674574931 Q 471.5799999999999 302.9886674574931 470.7299999999999 303.7986674574931 Q 469.8799999999999 304.6086674574931 468.13999999999993 304.6086674574931 Q 467.0999999999999 304.6086674574931 466.0199999999999 304.1686674574931 Q 464.9399999999999 303.7286674574931 464.9399999999999 303.1486674574931 Q 464.9399999999999 302.7286674574931 465.1699999999999 302.5086674574931 Q 465.3999999999999 302.2886674574931 465.6999999999999 302.2886674574931 Q 465.9999999999999 302.2886674574931 467.0499999999999 302.7286674574931 Q 468.0999999999999 303.1686674574931 468.5599999999999 303.1686674574931 Q 469.9999999999999 303.1686674574931 469.9999999999999 300.80866745749313 Q 469.9999999999999 298.4486674574931 469.9199999999999 297.5486674574931 Z  M 469.8999999999999 293.3186674574931 Q 469.8999999999999 293.3186674574931 469.8999999999999 292.5936674574931 Q 469.8999999999999 291.8686674574931 469.4699999999999 291.2786674574931 Q 469.0399999999999 290.6886674574931 468.1199999999999 290.6886674574931 Q 467.1999999999999 290.6886674574931 466.63999999999993 291.5286674574931 Q 466.0799999999999 292.3686674574931 466.0799999999999 293.6586674574931 Q 466.0799999999999 294.9486674574931 466.6099999999999 295.7086674574931 Q 467.13999999999993 296.4686674574931 468.2399999999999 296.4686674574931 Q 469.3399999999999 296.4686674574931 469.6599999999999 295.5286674574931 Q 469.8999999999999 294.7686674574931 469.8999999999999 293.3186674574931 Z " fill-rule="evenodd" fill="rgb(0,0,0)" fill-opacity="0.965" stroke-width="1" stroke="rgba(0,0,0,0)" stroke-linejoin="miter" stroke-linecap="square"/><line x1="393.7835112692764" y1="277.5286674574931" x2="487.80782918149447" y2="277.5286674574931" stroke-width="1" stroke="rgb(23,23,23)" stroke-linejoin="miter" stroke-linecap="square"/></svg>